<svg width="517" height="511" viewBox="0 0 517 511" fill="none" xmlns="http://www.w3.org/2000/svg">
<g opacity="0.1" clip-path="url(#clip0_0_65)">
<path d="M249.733 147.534C249.665 153.055 249.598 158.576 249.53 164.097C255.234 169.153 260.938 174.21 266.641 179.266C261.005 168.689 255.369 158.111 249.733 147.534Z" fill="black"/>
<path d="M320.551 166.51C310.382 172.852 300.212 179.194 290.042 185.536C297.51 184.01 304.978 182.482 312.446 180.955C315.148 176.14 317.849 171.325 320.551 166.51Z" fill="black"/>
<path d="M189.55 68.9258C192.683 77.3854 195.815 85.8457 198.949 94.3059C211.126 85.6084 223.303 76.9115 235.48 68.2141C224.271 70.9263 213.063 73.6384 201.854 76.35C220.308 69.1234 238.761 61.8961 257.215 54.6687C262.076 84.337 266.938 114.005 271.8 143.674C269.189 109.951 266.578 76.2293 263.967 42.5072C239.161 51.3132 214.356 60.1198 189.55 68.9258Z" fill="black"/>
<path d="M360.735 68.4359C341.613 96.3348 322.491 124.234 303.369 152.133C322.413 128.87 341.458 105.607 360.502 82.3444C372.869 97.8302 385.237 113.316 397.605 128.801C389.254 120.849 380.903 112.895 372.552 104.942C378.749 118.563 384.946 132.183 391.143 145.804C398.087 140.044 405.03 134.284 411.973 128.524C394.893 108.494 377.814 88.4651 360.735 68.4359Z" fill="black"/>
<path d="M369.216 251.83L266.014 228.41L164.928 197.091C135.864 205.532 106.801 213.973 77.7374 222.415C109.581 226.855 141.426 231.295 173.27 235.736C186.519 232.653 199.768 229.57 213.017 226.487C228.836 234.051 244.655 241.613 260.473 249.177C277.939 250.532 295.406 251.888 312.872 253.243C322.804 262.537 332.737 271.832 342.67 281.126C372.467 293.202 402.265 305.28 432.063 317.357C411.115 295.514 390.166 273.672 369.216 251.83Z" fill="black"/>
<path d="M85.0062 86.7795L119.544 169.912C169.442 185.398 219.34 200.885 269.237 216.373C230.899 177.24 192.56 138.108 154.221 98.9752C131.149 94.9097 108.078 90.8449 85.0062 86.7795Z" fill="black"/>
<path d="M427.543 172.212C374.775 186.932 322.006 201.652 269.237 216.373C320.194 227.91 371.15 239.446 422.106 250.983C445.932 232.741 469.758 214.5 493.581 196.257C471.57 188.242 449.556 180.227 427.543 172.212Z" fill="black"/>
<path d="M103.138 100.742C119.112 103.293 135.087 105.844 151.062 108.396C163.943 117.329 176.825 126.263 189.707 135.196C177.878 123.123 166.049 111.049 154.221 98.9763C131.149 94.911 108.078 90.8457 85.006 86.7803L119.543 169.912C114.075 146.855 108.607 123.798 103.138 100.742Z" fill="black"/>
<path d="M112.767 220.918C123.635 214.868 134.504 208.819 145.372 202.77C122.827 209.318 100.281 215.867 77.7353 222.415L173.268 235.735C184.43 233.138 195.591 230.541 206.753 227.944C195.59 228.439 184.427 228.935 173.263 229.43C153.098 226.593 132.933 223.756 112.767 220.918Z" fill="black"/>
<path d="M470.899 199.283C454.635 216.516 438.371 233.75 422.106 250.984C445.932 232.742 469.758 214.5 493.581 196.258C471.57 188.243 449.557 180.228 427.544 172.213C411.263 176.754 394.982 181.296 378.701 185.837C394.324 184.542 409.946 183.246 425.569 181.95C440.679 187.728 455.789 193.505 470.899 199.283Z" fill="black"/>
<path d="M402.472 298.543C383.589 290.918 364.707 283.293 345.824 275.667C336.405 269.657 326.985 263.646 317.565 257.636C325.933 265.465 334.3 273.295 342.668 281.125L432.061 317.356C415.811 300.412 399.56 283.468 383.31 266.524L402.472 298.543Z" fill="black"/>
<path d="M385.712 300.519L378.25 328.367C378.25 328.367 366.983 370.416 359.764 397.358C356.636 409.03 242.466 447.897 206.759 438.329C171.053 428.762 91.0783 340.01 94.7396 326.345C98.4008 312.682 113.226 257.354 113.226 257.354L117.945 239.741L120.688 229.506L105.873 225.537L102.639 237.607L98.4114 253.385L82.2161 313.826C82.2161 313.826 78.9143 323.995 77.6917 330.712C76.4694 337.429 152.72 441.95 202.234 455.217C251.749 468.485 369.849 418.977 372.344 409.664C374.839 400.351 376.868 392.778 376.868 392.778L393.064 332.337L397.291 316.559L400.526 304.489L385.712 300.519Z" fill="black"/>
<path d="M176.226 375.84L270.056 400.981L215.886 415.487L176.226 375.84Z" fill="black"/>
<path d="M181.171 335.033L162.275 329.97L163.798 324.288L182.694 329.351L181.171 335.033ZM177.589 348.402L158.693 343.338L160.216 337.656L179.112 342.719L177.589 348.402ZM188.105 322.563L149.919 312.331L121.828 304.804C130.469 310.022 139.103 315.238 147.742 320.455L140.695 346.752L156.634 351.023L175.53 356.088L178.882 356.984C185.834 358.847 192.385 356.938 193.516 352.72L194.911 347.511C195.557 345.101 192.86 342.283 188.888 341.219C192.86 342.283 196.604 341.192 197.25 338.782L198.646 333.573C199.776 329.355 195.057 324.426 188.105 322.563Z" fill="black"/>
<path d="M203.583 363.604L219.52 367.874L219.527 367.847L254.363 377.181L256.422 369.494L221.587 360.16L223.105 354.493L240.523 359.16L242.583 351.473L225.165 346.806L226.683 341.139L261.519 350.473L263.579 342.786L212.806 329.182L203.583 363.604Z" fill="black"/>
<path d="M322.786 366.89L322.807 366.813C332.766 366.763 342.723 366.712 352.684 366.662L324.846 359.203L274.073 345.598L264.85 380.021L280.787 384.291L280.794 384.264L315.63 393.598L317.689 385.911L282.854 376.577L284.372 370.91L301.79 375.577L303.85 367.889L286.432 363.222L287.951 357.555L322.786 366.89Z" fill="black"/>
<path d="M167.014 269.96L148.151 264.906L150.301 256.884L169.164 261.939L167.014 269.96ZM170.574 281.908C175.876 283.329 181.325 280.184 182.745 274.884L185.089 266.134C186.635 260.366 182.263 254.183 175.324 252.323L137.209 242.111L124.597 289.18L140.505 293.443L145.335 275.416L153.298 277.549L164.155 299.78L180.062 304.042L169.053 281.501L170.574 281.908Z" fill="black"/>
<path d="M224.174 304.598L205.314 299.545L215.111 262.985L199.202 258.723L189.388 295.347C187.843 301.115 192.214 307.298 199.153 309.157L202.499 310.053L221.361 315.109L224.705 316.004C231.643 317.863 238.521 314.694 240.067 308.926L249.88 272.302L233.97 268.039L224.174 304.598Z" fill="black"/>
<path d="M293.733 303.645L290.387 302.749L282.673 331.538L286.019 332.434C292.958 334.293 299.836 331.125 301.381 325.357L303.499 317.455C305.044 311.687 300.672 305.504 293.733 303.645Z" fill="black"/>
<path d="M298.631 285.363L276.424 279.413L273.077 278.517C266.139 276.658 259.261 279.827 257.715 285.595L255.598 293.496C254.053 299.264 258.424 305.448 265.363 307.307L287.567 313.256L290.383 302.746L271.525 297.693L273.607 289.923L308.378 299.24L308.396 299.174C309.942 293.406 305.57 287.223 298.631 285.363Z" fill="black"/>
<path d="M250.698 311.777C249.153 317.544 253.524 323.727 260.463 325.586L282.669 331.536L285.485 321.026L250.716 311.71L250.698 311.777Z" fill="black"/>
<path d="M365.81 322.957L370.708 304.678L354.799 300.415L349.901 318.694L331.04 313.64L335.937 295.361L320.028 291.098L307.416 338.167L323.325 342.43L328.223 324.151L347.085 329.205L342.187 347.484L358.096 351.747L362.994 333.467L365.81 322.957Z" fill="black"/>
</g>
<defs>
<clipPath id="clip0_0_65">
<rect width="423.063" height="414.626" fill="white" transform="translate(108.062 0.732544) rotate(15)"/>
</clipPath>
</defs>
</svg>
