<svg width="226" height="120" viewBox="0 0 226 120" fill="none" xmlns="http://www.w3.org/2000/svg">
<rect width="226" height="120" rx="15" fill="#E3412A"/>
<path d="M131.69 86.1568C131.785 86.1775 131.876 86.2084 131.969 86.2161C132.79 86.2921 133.61 86.3591 134.431 86.4415C135.129 86.5111 135.82 86.6309 136.489 86.8447C136.761 86.931 137.028 87.056 137.267 87.2106C137.55 87.3922 137.583 87.6821 137.398 87.9668C137.247 88.1986 137.03 88.3648 136.781 88.464C136.399 88.616 136.013 88.7732 135.615 88.8659C134.493 89.1287 133.364 89.3683 132.235 89.6028C129.771 90.1129 127.328 90.6848 124.976 91.5969C123.555 92.1469 122.131 92.6931 120.714 93.2522C117.955 94.3407 115.198 95.4331 112.374 96.3451C110.295 97.0163 108.194 97.6011 106.033 97.9502C104.502 98.1976 102.964 98.3302 101.416 98.2426C100.178 98.1731 98.9618 97.9734 97.787 97.5522C96.1794 96.9764 94.828 96.0321 93.7009 94.7555C92.8365 93.7778 92.1306 92.6905 91.4839 91.5621C91.0227 90.7583 90.5899 89.9364 90.1004 89.1493C88.941 87.2853 87.5253 85.6222 85.9782 84.0725C85.2065 83.3009 84.3885 82.5757 83.5976 81.8221C83.3606 81.5954 83.1377 81.3506 82.9252 81.1007C82.8208 80.977 82.7409 80.8263 82.6778 80.6756C82.5026 80.2621 82.6147 79.9516 83.0128 79.7494C83.3103 79.5987 83.6337 79.5394 83.9647 79.5085C85.0326 79.4067 86.0658 79.5549 87.0512 79.9684C87.962 80.351 88.8663 80.7516 89.7551 81.1831C91.2559 81.9123 92.7309 82.6955 94.2368 83.4117C96.3249 84.4036 98.4839 85.2062 100.736 85.7536C102.973 86.2973 105.238 86.5523 107.539 86.4196C109.27 86.3192 110.978 86.0435 112.66 85.6261C114.539 85.1585 116.41 84.6664 118.282 84.1717C121.25 83.3872 124.239 82.6993 127.271 82.2073C129.122 81.9071 130.976 81.6417 132.843 81.4653C134.321 81.3261 135.799 81.2089 137.284 81.2682C137.714 81.2849 138.145 81.3506 138.57 81.4253C138.764 81.4601 138.996 81.5091 139.067 81.7396C139.147 81.9999 138.97 82.1763 138.794 82.3142C138.438 82.5937 138.078 82.872 137.695 83.1103C136.416 83.9064 135.048 84.5363 133.68 85.1598C133.118 85.4161 132.549 85.657 131.985 85.9082C131.878 85.9559 131.745 85.9778 131.693 86.1556L131.69 86.1568Z" fill="white"/>
<path d="M67.9517 52.379C68.2235 51.4721 68.4644 50.5549 68.7735 49.6622C70.188 45.5799 72.003 41.6857 74.2934 38.0182C78.4298 31.3944 83.8879 26.1643 90.7694 22.444C94.5799 20.3842 98.6093 18.9066 102.841 17.9843C104.069 17.7164 105.313 17.5386 106.565 17.4214C107.611 17.3235 108.658 17.2449 109.705 17.1534C109.886 17.138 110.066 17.1045 110.253 17.0774C110.377 16.8275 110.35 16.575 110.377 16.3341C110.575 14.5783 111.464 13.2824 113.036 12.4992C115.871 11.086 119.278 12.8122 119.855 15.9283C119.893 16.1293 119.892 16.338 119.912 16.5428C119.929 16.7026 119.952 16.8623 119.975 17.0388C120.159 17.0748 120.318 17.1225 120.478 17.1354C122.624 17.3222 124.693 17.8632 126.749 18.4725C130.953 19.7208 134.816 21.6737 138.457 24.0955C140.209 25.26 141.895 26.5121 143.501 27.8712C143.651 27.9974 143.84 28.0966 143.924 28.3594C143.773 28.3723 143.657 28.3852 143.543 28.3916C141.63 28.4895 139.715 28.5797 137.803 28.693C137.471 28.7124 137.207 28.6312 136.932 28.465C134.283 26.8574 131.511 25.5035 128.605 24.4291C125.835 23.405 122.995 22.654 120.077 22.1864C117.752 21.8141 115.414 21.6286 113.062 21.626C111 21.6247 108.947 21.7742 106.9 22.0447C101.925 22.7017 97.1601 24.1032 92.5471 26.051C90.629 26.8612 88.7456 27.7411 86.9602 28.8206C84.1945 30.4926 81.6941 32.5009 79.4204 34.7926C75.704 38.54 72.7167 42.8142 70.2846 47.4864C69.5233 48.9485 68.8276 50.4416 68.1977 51.9655C68.1372 52.1123 68.114 52.2888 67.9375 52.3622L67.9491 52.3751L67.9517 52.379Z" fill="white"/>
<path d="M48.0742 67.1333C48.3319 67.1977 48.5959 67.2441 48.8484 67.3278C52.6962 68.6122 56.5776 69.7883 60.4898 70.86C63.7077 71.7412 66.9462 72.5386 70.2247 73.1556C71.8426 73.4596 73.4709 73.716 75.0992 73.9569C76.8305 74.2132 78.5657 74.4412 80.3022 74.6512C81.6715 74.8174 83.046 74.9397 84.4192 75.075C85.5464 75.1858 86.6749 75.2888 87.802 75.3906C88.3972 75.4434 88.9923 75.4911 89.5887 75.531C90.4518 75.589 91.3149 75.6405 92.1793 75.6895C94.0497 75.7977 95.9215 75.902 97.7932 76.0077C97.8963 76.0141 97.9993 76.0192 98.1024 76.0231C102.943 76.1957 107.784 76.2202 112.627 76.1262C113.945 76.1004 115.264 76.0759 116.581 76.0321C118.97 75.9523 121.358 75.8647 123.746 75.7681C125.351 75.7024 126.957 75.6238 128.562 75.5349C130.31 75.4383 132.057 75.3223 133.805 75.2154C134.442 75.1768 135.08 75.1381 135.716 75.0956C137.011 75.0093 138.306 74.9191 139.6 74.8341C139.753 74.8238 139.908 74.8328 140.073 74.8908C139.943 74.9397 139.815 74.9938 139.684 75.0376C137.435 75.7848 135.139 76.3619 132.827 76.8746C130.695 77.3474 128.549 77.7403 126.391 78.0649C125.006 78.2736 123.618 78.4501 122.226 78.6072C120.713 78.7786 119.194 78.9177 117.678 79.0594C117.043 79.1186 116.404 79.1586 115.766 79.1946C112.082 79.3982 108.396 79.5205 104.707 79.4342C102.688 79.3866 100.67 79.3119 98.655 79.1921C96.8876 79.0864 95.1241 78.9087 93.3606 78.7515C91.9242 78.624 90.4892 78.4926 89.0554 78.338C87.4581 78.1667 85.8633 77.9747 84.2698 77.7789C82.8592 77.6063 81.45 77.4272 80.0432 77.2301C78.6572 77.0356 77.2723 76.8282 75.8901 76.6015C73.6757 76.2382 71.469 75.8299 69.2791 75.3391C66.3601 74.6847 63.5145 73.792 60.7127 72.7498C56.5776 71.2117 52.561 69.4031 48.614 67.436C48.4323 67.3459 48.2649 67.2261 48.091 67.1191L48.0768 67.1333H48.0742Z" fill="white"/>
<path d="M153.188 38.9353C153.309 39.1518 153.395 39.3141 153.489 39.4725C155.039 42.1159 156.238 44.9087 157.08 47.8561C157.26 48.4898 157.456 49.1198 157.612 49.76C157.7 50.1258 157.878 50.3693 158.212 50.5613C159.392 51.2427 160.493 52.0388 161.541 52.9122C162.254 53.5073 162.923 54.1489 163.521 54.8612C164.053 55.495 164.516 56.1752 164.837 56.943C165.247 57.9207 165.39 58.9177 165.061 59.956C164.849 60.6259 164.5 61.1978 163.919 61.5985C163.479 61.9012 163.031 62.2039 162.553 62.4384C161.833 62.7913 161.085 63.0863 160.346 63.4019C160.121 63.4986 159.889 63.5836 159.633 63.6853C159.564 64.305 159.522 64.9207 159.42 65.5249C159.32 66.1213 159.258 66.7345 158.949 67.282C158.962 66.1947 159.041 65.1114 158.926 64.0589C158.714 63.9262 158.561 64.0164 158.409 64.0628C156.755 64.5678 155.083 65.0109 153.395 65.3909C152.411 65.6125 151.424 65.8186 150.439 66.0299C150.381 66.0427 150.318 66.0311 150.262 66.0311C150.063 65.9255 150.053 65.7297 150.024 65.5506C149.998 65.3883 150.077 65.2672 150.23 65.2106C150.385 65.1539 150.543 65.1088 150.702 65.0637C153.02 64.4067 155.329 63.7214 157.569 62.8235C158.449 62.4706 159.32 62.0919 160.12 61.5779C160.465 61.3563 160.792 61.1012 161.099 60.8294C161.452 60.5164 161.617 60.1132 161.641 59.6275C161.709 58.2685 161.395 57.0112 160.705 55.8454C160.238 55.0596 159.647 54.3756 158.969 53.7637C158.886 53.6877 158.771 53.6452 158.618 53.5563C158.616 54.2004 158.822 54.7453 158.901 55.3095C158.981 55.8802 159.102 56.4444 159.188 57.0151C159.275 57.5845 159.348 58.1577 159.411 58.731C159.473 59.3016 159.514 59.8749 159.568 60.4765C159.309 60.6298 159.066 60.774 158.78 60.9428C158.727 60.7599 158.67 60.6298 158.654 60.4945C158.52 59.4511 158.328 58.4205 158.081 57.399C157.643 55.5929 157.005 53.8526 156.286 52.1432C154.481 47.8496 152.195 43.8305 149.408 40.0973C147.28 37.2465 144.896 34.6341 142.195 32.314C142.116 32.2471 142.035 32.1839 141.96 32.1131C141.772 31.9353 141.558 31.8361 141.29 31.858C141.127 31.8709 140.96 31.8606 140.796 31.8593C138.59 31.8516 136.385 31.8426 134.181 31.8348C134.119 31.8348 134.057 31.84 133.995 31.8335C133.761 31.8078 133.449 31.9237 133.34 31.63C133.216 31.2989 133.216 30.9344 133.408 30.6175C133.461 30.5312 133.61 30.4732 133.722 30.459C134.172 30.4024 134.623 30.3599 135.075 30.3251C135.69 30.2774 136.308 30.2362 136.925 30.2027C138.056 30.1409 139.188 30.0713 140.32 30.0339C142.709 29.9554 145.098 29.8729 147.488 29.8368C148.62 29.8201 149.755 29.8794 150.885 29.9489C151.748 30.003 152.603 30.1396 153.43 30.4152C153.902 30.5724 154.355 30.7669 154.762 31.0542C155.733 31.7408 156.104 32.6825 155.94 33.8496C155.847 34.5091 155.628 35.1287 155.339 35.7252C154.872 36.6952 154.265 37.5763 153.596 38.4175C153.47 38.5772 153.344 38.737 153.189 38.934L153.188 38.9353ZM148.055 32.0435C148.109 32.3398 148.294 32.4545 148.423 32.609C149.11 33.4309 149.826 34.2296 150.481 35.0746C151.162 35.9532 151.783 36.8768 152.434 37.7773C152.525 37.9022 152.568 38.0877 152.803 38.0877C152.832 37.9524 152.875 37.8159 152.893 37.6755C152.982 36.9786 152.987 36.2778 152.914 35.5796C152.85 34.9845 152.731 34.3996 152.463 33.856C152.014 32.944 151.311 32.3591 150.293 32.2136C149.642 32.1208 148.985 32.0706 148.329 32.0062C148.253 31.9984 148.173 32.0255 148.057 32.0422L148.055 32.0435Z" fill="white"/>
<path d="M113.886 28.7549C113.082 28.7549 112.278 28.7407 111.474 28.7575C109.493 28.8 107.53 29.0241 105.576 29.3372C103.375 29.6901 101.213 30.1964 99.0884 30.8688C93.5105 32.6349 88.4853 35.3788 84.166 39.3529C80.5642 42.6674 77.6374 46.4933 75.5454 50.9324C74.2572 53.6672 73.3594 56.527 72.8673 59.5143C72.6225 61.0022 72.4885 62.4991 72.4499 64.0024C72.4113 65.4877 72.5079 66.9678 72.7449 68.4363C72.7681 68.578 72.7823 68.7223 72.7951 68.8666C72.8003 68.9271 72.7874 68.9877 72.781 69.0856C72.6869 69.0959 72.589 69.1242 72.4963 69.1139C71.8998 69.0469 71.3227 68.8962 70.7649 68.6759C70.1479 68.4325 69.7499 68.019 69.5875 67.353C69.3763 66.4873 69.2591 65.6152 69.2294 64.7263C69.1431 62.217 69.4446 59.7462 70.0139 57.3102C71.1037 52.6418 72.8814 48.2465 75.3535 44.1372C78.3009 39.2408 82.3084 35.4393 87.2963 32.6659C89.4605 31.4627 91.698 30.4167 94.049 29.627C95.989 28.9752 97.9805 28.5604 100.008 28.3002C102.138 28.0271 104.276 27.9124 106.421 27.9627C107.965 27.9987 109.509 28.0889 111.043 28.2796C111.758 28.3685 112.473 28.4599 113.186 28.5578C113.429 28.5913 113.667 28.6493 113.908 28.6957C113.901 28.7137 113.894 28.733 113.887 28.751L113.886 28.7549Z" fill="white"/>
<path d="M78.517 57.4684C78.8029 57.766 78.9833 58.1074 79.1907 58.4732C79.0348 58.6046 78.9008 58.7244 78.7591 58.8365C78.1575 59.308 77.5907 59.8155 77.1193 60.421C76.7869 60.8486 76.5267 61.3137 76.4043 61.8457C76.1042 63.1545 76.9415 64.2533 78.2851 64.3164C79.5398 64.3757 80.6322 63.9699 81.5867 63.1661C82.2424 62.6147 82.7435 61.9397 83.1635 61.2003C83.756 60.1569 84.2004 59.049 84.5637 57.909C84.8755 56.9287 85.1498 55.9355 85.441 54.9487C85.8596 53.5266 86.3363 52.125 86.9172 50.757C87.5794 49.1982 88.5713 47.9191 89.9535 46.94C90.0978 46.8383 90.2859 46.7687 90.3335 46.5703C90.3026 46.4505 90.206 46.4634 90.1326 46.4686C87.3836 46.6721 84.7621 47.2891 82.4395 48.862C81.9603 49.1867 81.5094 49.5448 81.1191 49.975C80.6695 50.471 80.3178 51.0262 80.1929 51.6935C79.9417 53.028 80.3127 54.1797 81.2556 55.1458C81.4837 55.3803 81.7452 55.5812 81.9989 55.8054C81.8894 56.1364 81.6795 56.3876 81.4901 56.6569C81.418 56.6517 81.3523 56.6646 81.3033 56.6414C80.1298 56.0707 79.1585 55.263 78.4422 54.1655C78.1022 53.6438 77.869 53.0783 77.7415 52.4625C77.5354 51.4603 77.7324 50.5405 78.249 49.6762C78.6883 48.9406 79.2886 48.348 79.9533 47.8186C81.2389 46.7958 82.6714 46.037 84.2108 45.4741C86.5707 44.6097 89.0002 44.1138 91.5212 44.1202C91.8304 44.1202 92.1434 44.1138 92.4462 44.1614C92.7051 44.2014 92.9717 44.2799 93.2023 44.4023C93.5192 44.5698 93.5978 44.8764 93.4252 45.1907C93.3183 45.3865 93.174 45.5681 93.0155 45.7266C92.812 45.9301 92.5853 46.1117 92.3573 46.2869C91.0034 47.3239 89.9922 48.6301 89.2849 50.1747C88.4837 51.9228 87.9414 53.7571 87.5124 55.6276C87.4943 55.7075 87.4892 55.7912 87.4879 55.8724C87.4879 55.9097 87.5124 55.9471 87.5266 55.9896C87.6695 56.0862 87.7971 55.9947 87.9259 55.9445C89.1188 55.4756 90.2408 54.8689 91.3113 54.1668C93.183 52.9379 94.8177 51.4345 96.3378 49.7998C97.702 48.3326 98.927 46.7571 100.026 45.0825C100.125 44.9318 100.24 44.7926 100.358 44.6316C101.009 44.915 101.612 45.2152 102.211 45.5411C102.15 45.8283 101.989 46.019 101.856 46.2225C99.964 49.1171 97.6195 51.5801 94.8087 53.5974C93.469 54.5597 92.0752 55.4382 90.6414 56.2511C90.4276 56.3722 90.2189 56.4997 90.0244 56.6144C90.0089 56.7135 89.9831 56.7767 89.9934 56.8333C90.425 59.0606 90.9725 61.2557 91.8291 63.3619C92.1164 64.0691 92.4436 64.757 92.8751 65.3895C93.3968 66.1534 94.0396 66.7782 94.9143 67.1247C95.123 67.2071 95.3394 67.2703 95.5636 67.345C95.6692 67.783 95.637 68.2055 95.5855 68.619C95.1011 68.7594 94.6567 68.7568 94.1749 68.628C93.4587 68.4374 92.8648 68.0367 92.3302 67.5408C91.7067 66.9637 91.1953 66.2912 90.7354 65.5802C89.9818 64.4169 89.397 63.17 88.8792 61.8882C88.3239 60.5124 87.8666 59.1018 87.4506 57.6784C87.4042 57.52 87.3539 57.3641 87.3011 57.2082C87.2882 57.1721 87.2535 57.1438 87.1994 57.073C87.1311 57.176 87.0538 57.2597 87.0151 57.3589C86.7923 57.9129 86.5991 58.4797 86.3556 59.0233C85.3791 61.2055 83.9969 63.0759 82.0633 64.511C80.9748 65.3187 79.791 65.9267 78.4435 66.1663C77.565 66.3222 76.6839 66.3634 75.8092 66.1212C75.4073 66.0104 75.0401 65.8301 74.7052 65.5827C73.998 65.061 73.6321 64.3512 73.56 63.483C73.4982 62.7436 73.6605 62.0518 73.9941 61.3935C74.3136 60.7623 74.7348 60.2058 75.2192 59.6957C76.0668 58.8043 77.0677 58.1228 78.1653 57.5805C78.2722 57.5277 78.3933 57.5058 78.5157 57.4658L78.517 57.4684Z" fill="white"/>
<path d="M108.018 63.7809C107.889 64.3825 107.776 64.9468 107.647 65.5058C107.293 67.0517 106.901 68.5872 106.318 70.0673C105.814 71.3465 105.077 72.4865 104.208 73.5377C103.105 74.871 101.639 75.4236 99.9374 75.3643C98.4998 75.3141 97.5156 74.4124 97.2812 72.9902C97.0944 71.854 97.316 70.7771 97.7707 69.7388C98.2074 68.7405 98.8811 67.9135 99.6785 67.1818C100.812 66.1409 102.107 65.3422 103.486 64.6788C104.246 64.313 105.032 64.0012 105.808 63.6689C106.033 63.5723 106.264 63.4834 106.469 63.4009C106.726 62.829 108.094 57.9879 108.138 57.5023C107.955 57.4881 107.911 57.6479 107.833 57.7496C107.332 58.4027 106.849 59.0713 106.333 59.7141C105.855 60.3093 105.321 60.8529 104.737 61.3475C104.035 61.9401 103.253 62.3858 102.368 62.637C101.829 62.7903 101.275 62.8354 100.716 62.8019C99.5007 62.7285 98.6454 61.9569 98.4277 60.755C98.304 60.0761 98.3156 59.3934 98.4625 58.7274C99.019 56.1896 100.006 53.8245 101.392 51.6269C101.424 51.5753 101.461 51.5251 101.503 51.4787C101.528 51.4478 101.564 51.4259 101.625 51.377C102.098 51.5083 102.561 51.7067 103.038 51.9811C102.94 52.1834 102.855 52.3663 102.762 52.5453C102.156 53.7163 101.584 54.9027 101.161 56.1561C100.895 56.9458 100.746 57.7496 100.835 58.5857C100.852 58.7493 100.878 58.9129 100.913 59.0726C101.065 59.7772 101.526 60.1779 102.207 60.3247C102.913 60.4767 103.598 60.4149 104.237 60.0349C104.701 59.7592 105.13 59.4384 105.497 59.0456C106.059 58.444 106.619 57.8372 107.142 57.2022C107.822 56.3751 108.467 55.5172 109.125 54.6734C109.251 54.5124 109.376 54.3514 109.523 54.1633C109.921 54.3102 110.257 54.5279 110.593 54.7791C110.575 55.0586 110.489 55.3111 110.413 55.5649C109.887 57.2988 109.357 59.0314 108.835 60.7653C108.693 61.2381 108.568 61.7173 108.446 62.1952C108.401 62.3704 108.387 62.552 108.362 62.704C108.478 62.838 108.576 62.7916 108.67 62.7555C109.207 62.5456 109.742 62.3317 110.28 62.123C110.449 62.0573 110.624 62.0058 110.787 61.9517C110.981 62.1372 110.973 62.342 110.959 62.5842C110.854 62.646 110.739 62.7324 110.611 62.7826C109.979 63.0312 109.344 63.2708 108.709 63.5143C108.497 63.5954 108.289 63.6792 108.025 63.7835L108.018 63.7809ZM106.31 64.3632C106.141 64.4057 106.024 64.4173 105.922 64.4637C104.968 64.9068 104.062 65.4376 103.204 66.0469C102.514 66.5364 101.854 67.0632 101.267 67.6739C100.763 68.1969 100.335 68.7727 100.055 69.449C99.8279 69.9952 99.7519 70.5607 99.8524 71.1429C99.9864 71.9184 100.623 72.453 101.411 72.4646C102.014 72.4736 102.538 72.2534 103.012 71.9017C103.396 71.617 103.709 71.2615 103.985 70.8724C104.379 70.3146 104.691 69.7118 104.955 69.0844C105.531 67.7125 105.928 66.2865 106.233 64.8334C106.261 64.6981 106.278 64.5616 106.31 64.3619V64.3632Z" fill="white"/>
<path d="M78.75 108.338C79.0862 108.252 79.4224 108.163 79.7599 108.082C82.8233 107.345 85.884 106.598 88.9164 105.741C91.7118 104.951 94.4698 104.046 97.2175 103.108C97.4043 103.045 97.6297 103.032 97.7573 102.836C97.7238 102.64 97.546 102.596 97.4146 102.518C96.4768 101.958 95.5313 101.411 94.596 100.848C92.5478 99.6156 90.5215 98.3506 88.5364 97.0173C86.6183 95.7291 84.981 94.1472 83.5292 92.3644C83.0745 91.8053 82.6481 91.223 82.2139 90.6472C82.0929 90.4862 81.9911 90.3097 81.8919 90.1577C81.9808 89.9761 82.1186 90.0211 82.232 90.0134C82.849 89.9709 83.4661 89.9464 84.0818 89.8936C84.7852 89.8331 85.4602 89.6527 86.0978 89.3436C86.2447 89.2727 86.3928 89.2019 86.5745 89.1143C86.6389 89.2302 86.711 89.3242 86.7484 89.4299C88.2852 93.8007 91.2055 96.9143 95.3548 98.9174C97.7212 100.059 100.198 100.884 102.745 101.508C103.745 101.753 104.755 101.951 105.761 102.173C105.919 102.207 106.076 102.25 106.324 102.31C106.146 102.401 106.045 102.461 105.939 102.505C102.061 104.087 98.0999 105.411 94.0228 106.372C92.0583 106.836 90.0693 107.179 88.0649 107.431C86.5526 107.622 85.0415 107.82 83.5279 107.99C82.4639 108.11 81.3947 108.188 80.328 108.283C79.8153 108.328 79.3026 108.365 78.7886 108.406C78.7758 108.384 78.7642 108.361 78.7513 108.339L78.75 108.338Z" fill="white"/>
<path d="M148.378 57.6905C148.734 57.0528 148.967 56.3946 149.143 55.717C149.32 55.0407 149.467 54.3554 149.624 53.6739C149.781 52.995 149.735 52.284 149.908 51.5755C150.51 51.578 151.061 51.73 151.596 51.8357C151.757 52.0186 151.716 52.2092 151.708 52.3909C151.671 53.3429 151.489 54.2742 151.271 55.1953C150.662 57.7845 149.87 60.3197 148.92 62.8033C148.774 63.1872 148.594 63.5595 148.418 63.9318C148.35 64.0773 148.251 64.2087 148.173 64.3324C147.563 64.3234 146.647 64.1276 146.289 63.9292C146.318 63.8171 146.345 63.6986 146.383 63.584C146.899 62.0046 147.161 60.3854 147.161 58.7236C147.161 57.6931 147.184 56.6612 147.018 55.6397C146.956 55.2558 146.885 54.8642 146.75 54.5009C146.433 53.6482 145.768 53.2501 144.866 53.3184C143.942 53.3892 143.169 53.786 142.513 54.4262C142.212 54.7199 141.987 55.0729 141.922 55.4903C141.803 56.2451 141.913 56.9562 142.789 57.5011C143.286 57.8116 143.829 57.9868 144.395 58.1169C144.836 58.2187 145.274 58.3359 145.704 58.475C145.936 58.5497 146.162 58.6657 146.366 58.8009C146.692 59.0173 146.764 59.2402 146.609 59.5957C146.487 59.8766 146.329 60.1471 146.15 60.3944C145.602 61.1493 144.941 61.7998 144.247 62.4169C143.583 63.0069 142.885 63.5531 142.126 64.0142C141.811 64.2062 141.477 64.3723 141.137 64.5166C140.932 64.6029 140.702 64.6467 140.479 64.6648C139.958 64.706 139.554 64.4883 139.294 64.0361C139.034 63.5853 138.847 63.1073 138.856 62.574C138.862 62.2249 138.873 61.8758 138.882 61.5422C139.213 61.2304 139.595 61.0823 139.942 60.9135C140.168 60.9741 140.171 61.166 140.239 61.3064C140.355 61.5473 140.439 61.805 140.573 62.0343C140.756 62.3499 141.044 62.4903 141.412 62.404C141.632 62.3525 141.857 62.3048 142.062 62.2146C143.108 61.7586 143.858 60.996 144.338 59.9667C144.399 59.8379 144.43 59.6949 144.463 59.5545C144.476 59.5017 144.452 59.4399 144.44 59.3381C144.271 59.3523 144.113 59.3587 143.957 59.3793C143.053 59.4927 142.15 59.5262 141.254 59.311C141.035 59.2582 140.822 59.1796 140.61 59.0985C140.092 58.8988 139.774 58.5137 139.615 57.9906C139.423 57.3659 139.425 56.7308 139.554 56.0957C139.666 55.5444 139.898 55.0394 140.199 54.5666C140.769 53.6701 141.472 52.8946 142.334 52.2711C143.407 51.4956 144.61 51.1285 145.933 51.1903C146.988 51.2392 147.713 51.7635 148.093 52.7516C148.325 53.3544 148.409 53.9895 148.444 54.6272C148.484 55.3473 148.489 56.0687 148.379 56.7862C148.334 57.0825 148.324 57.3852 148.383 57.6866L148.378 57.6905Z" fill="white"/>
<path d="M137.513 51.4255C137.962 51.4462 138.315 51.526 138.67 51.6806C138.647 51.9601 138.514 52.1714 138.412 52.3891C137.955 53.3565 137.462 54.3085 137.037 55.2901C136.284 57.0305 135.6 58.7979 135.187 60.6541C135.004 61.4773 134.879 62.312 134.727 63.1416C134.701 63.2795 134.669 63.4173 134.642 63.5423C134.253 63.6105 133.329 63.5487 132.788 63.4263C132.65 63.2679 132.706 63.0811 132.726 62.9007C132.835 61.9552 133.066 61.0393 133.382 60.1427C133.511 59.7756 133.638 59.4072 133.781 58.9962C133.624 58.9524 133.494 58.8816 133.365 58.8842C132.728 58.8971 132.087 58.9035 131.454 58.964C130.86 59.0194 130.272 59.1379 129.684 59.2333C129.583 59.25 129.487 59.2912 129.337 59.3363C128.435 61.2609 127.803 63.2859 127.659 65.4333C127.149 65.5119 126.188 65.3947 125.67 65.1976C125.6 64.9464 125.647 64.6849 125.683 64.4208C125.88 62.9974 126.385 61.6731 126.989 60.381C127.067 60.2136 127.138 60.0435 127.205 59.8709C127.218 59.8387 127.196 59.7923 127.19 59.7511C127.033 59.6481 126.87 59.7035 126.713 59.7395C126.011 59.9006 125.31 60.0667 124.608 60.2303C124.433 60.2716 124.257 60.3089 124.066 60.3501C123.886 59.9817 123.817 59.6275 123.777 59.2796C123.937 59.0761 124.151 59.0465 124.344 58.9962C125.34 58.7373 126.34 58.49 127.337 58.2401C127.535 58.1898 127.736 58.1473 127.923 58.1035C128.138 57.8678 128.216 57.5844 128.332 57.3242C128.992 55.8363 129.659 54.3536 130.428 52.9186C130.633 52.5373 130.855 52.1663 131.083 51.7991C131.19 51.6278 131.33 51.4784 131.459 51.3135C131.911 51.4333 132.304 51.5943 132.705 51.7978C132.699 52.0477 132.555 52.2294 132.46 52.4252C131.961 53.4416 131.442 54.4489 130.958 55.4718C130.694 56.0295 130.479 56.6105 130.251 57.1838C130.207 57.2933 130.2 57.4169 130.173 57.5522C130.674 57.6939 131.134 57.4981 131.601 57.4903C132.073 57.4813 132.543 57.404 133.016 57.3796C133.488 57.3551 133.96 57.3602 134.471 57.3512C134.579 57.1258 134.684 56.9068 134.788 56.6865C135.349 55.4949 135.904 54.2995 136.478 53.1118C136.666 52.7228 136.891 52.3518 137.113 51.9808C137.227 51.7888 137.374 51.6162 137.516 51.423L137.513 51.4255Z" fill="white"/>
<path d="M116.532 57.1265C116.448 56.8933 116.379 56.682 116.297 56.4733C115.866 55.3578 115.497 54.2242 115.294 53.0429C115.269 52.9012 115.251 52.7582 115.241 52.6139C115.236 52.5341 115.253 52.4529 115.262 52.3408C115.884 52.1102 116.54 52.0729 117.153 51.9492C117.356 52.078 117.388 52.2674 117.444 52.4413C117.73 53.343 118.008 54.2473 118.299 55.1478C118.36 55.3372 118.369 55.5549 118.565 55.7236C118.786 55.6888 118.946 55.5175 119.128 55.3951C120.223 54.6621 121.307 53.915 122.407 53.1897C122.853 52.896 123.326 52.6397 123.79 52.3743C123.929 52.2945 124.082 52.2391 124.23 52.1708C124.494 52.3614 124.613 52.6217 124.788 52.8819C124.671 53.003 124.587 53.1176 124.477 53.1975C124.096 53.4783 123.71 53.7527 123.321 54.0206C122.099 54.8618 120.876 55.6966 119.656 56.539C119.456 56.6769 119.229 56.7915 119.084 57.0414C119.281 57.6366 119.604 58.1853 119.909 58.7406C120.207 59.2816 120.523 59.8123 120.858 60.3315C121.204 60.8674 121.571 61.3904 121.951 61.9018C122.317 62.3939 122.711 62.8641 123.107 63.3626C122.669 63.7246 122.204 63.9822 121.753 64.2617C121.457 64.1471 121.254 63.9384 121.04 63.7503C119.87 62.7185 118.947 61.487 118.182 60.1331C117.969 59.7569 117.78 59.3679 117.578 58.9866C117.493 58.8256 117.401 58.6684 117.307 58.4997C117.023 58.5718 116.867 58.7741 116.702 58.9441C115.874 59.8046 115.047 60.6651 114.24 61.5462C113.657 62.1839 113.108 62.8538 112.541 63.5069C112.423 63.6434 112.295 63.7709 112.152 63.9229C111.992 63.8083 111.857 63.7194 111.732 63.6189C111.606 63.5185 111.489 63.4064 111.395 63.3227C111.398 63.0186 111.541 62.8331 111.674 62.6567C112.118 62.0641 112.546 61.4548 113.038 60.9034C114.024 59.7969 115.048 58.7238 116.056 57.6379C116.208 57.4743 116.361 57.3094 116.532 57.1265Z" fill="white"/>
<path d="M107.496 43.6902C107.546 43.5047 107.583 43.3694 107.627 43.2084C107.995 43.1543 108.357 43.1504 108.73 43.2135C108.793 43.3746 108.852 43.524 108.918 43.6914C109.084 43.7211 109.242 43.7507 109.402 43.7778C109.789 43.846 110.165 43.9517 110.507 44.1475C111.1 44.4863 111.446 44.9861 111.519 45.6766C111.64 46.8437 111.108 47.6874 109.997 48.0417C109.783 48.1099 109.557 48.1409 109.336 48.1898C109.199 48.2194 109.059 48.2491 108.909 48.28C108.849 48.4449 108.795 48.5969 108.744 48.7412C108.551 48.8352 108.205 48.8378 107.622 48.7489C107.582 48.6072 107.539 48.4552 107.49 48.2813C107.322 48.2465 107.165 48.2078 107.005 48.1808C106.595 48.1125 106.207 47.9876 105.842 47.7892C104.483 47.0523 104.501 44.8727 105.866 44.1552C106.215 43.971 106.584 43.8512 106.971 43.7816C107.131 43.7533 107.292 43.7249 107.493 43.6889L107.496 43.6902ZM108.897 44.8508C108.773 45.2656 108.813 45.6366 108.822 46.0012C108.833 46.3747 108.719 46.7715 108.946 47.118C109.823 47.0459 110.214 46.6517 110.185 45.902C110.175 45.6224 110.094 45.3738 109.884 45.1883C109.617 44.9526 109.309 44.8135 108.897 44.8521V44.8508ZM107.487 44.874C107.022 44.789 106.64 44.9539 106.377 45.33C106.111 45.7126 106.094 46.1506 106.336 46.5499C106.589 46.9647 106.983 47.149 107.472 47.0948C107.591 46.6156 107.597 45.4266 107.485 44.8727L107.487 44.874Z" fill="white"/>
<path d="M54.0065 63.4137C54.3092 63.4137 54.514 63.4124 54.7176 63.4137C56.5519 63.4278 58.3863 63.433 60.2194 63.4626C61.8065 63.4884 63.3922 63.536 64.978 63.5876C65.5538 63.6056 66.1296 63.6545 66.7055 63.7022C66.8858 63.7164 67.0636 63.7718 67.2542 63.8104C67.5351 64.4661 67.6677 65.1244 67.6858 65.8084C67.6909 65.9952 67.6742 66.1807 67.4848 66.3366C67.2671 66.401 67.0249 66.352 66.784 66.3018C64.8286 65.8934 62.8718 65.4979 60.9202 65.0703C58.8089 64.6078 56.7027 64.117 54.5939 63.6404C54.4187 63.6004 54.2409 63.5747 54.0039 63.4137H54.0065Z" fill="white"/>
<path d="M136.226 45.7149C136.137 45.7149 136.117 45.7123 136.099 45.7149C136.079 45.7188 136.056 45.7252 136.042 45.7381C136.011 45.7651 135.983 45.796 135.959 45.8282C135.329 46.7184 134.7 47.6085 134.066 48.5051C133.633 48.6056 133.208 48.5695 132.757 48.5244C132.734 48.4214 132.694 48.3248 132.694 48.2281C132.69 46.7261 132.691 45.2228 132.694 43.7208C132.694 43.6602 132.713 43.5997 132.722 43.5417C133.085 43.3871 133.366 43.373 133.973 43.4825C134.113 43.6615 134.071 43.8741 134.072 44.075C134.077 44.6715 134.072 45.2692 134.077 45.8656C134.079 45.9983 134.112 46.1323 134.131 46.2649C134.348 46.2598 134.402 46.1091 134.479 46.0009C134.969 45.313 135.451 44.6212 135.938 43.932C136.055 43.7659 136.181 43.6048 136.303 43.4412H137.518C137.549 43.5713 137.599 43.686 137.599 43.7993C137.604 45.2602 137.603 46.7223 137.601 48.1831C137.601 48.2823 137.572 48.3802 137.559 48.4677C137.079 48.5901 136.871 48.5927 136.292 48.4832C136.199 47.5789 136.307 46.6553 136.227 45.7136L136.226 45.7149Z" fill="white"/>
<path d="M120.205 43.5075C120.28 43.4715 120.315 43.4392 120.352 43.4392C121.506 43.4302 122.659 43.4238 123.813 43.4199C123.977 43.4199 124.14 43.4341 124.311 43.4418C124.511 43.76 124.444 44.0756 124.371 44.4337C124.224 44.4479 124.086 44.4737 123.95 44.4737C123.373 44.4788 122.796 44.4737 122.218 44.4775C122.016 44.4775 121.814 44.4943 121.627 44.502C121.538 44.7476 121.516 45.0143 121.561 45.302C121.714 45.4475 121.907 45.396 122.087 45.4037C122.498 45.4218 122.91 45.4282 123.321 45.4475C123.423 45.4527 123.525 45.4797 123.625 45.5016C124.326 45.6536 124.746 46.0903 124.818 46.7409C124.895 47.4352 124.595 48.0265 123.968 48.3112C123.692 48.4361 123.38 48.5328 123.08 48.5431C122.195 48.574 121.309 48.5572 120.423 48.5546C120.365 48.5546 120.307 48.5263 120.211 48.5005C120.19 48.3717 120.146 48.2352 120.144 48.0999C120.139 46.6984 120.139 45.2968 120.144 43.8966C120.144 43.7587 120.186 43.6222 120.204 43.5088L120.205 43.5075ZM121.525 47.5073C121.951 47.604 122.631 47.6387 122.869 47.5718C122.985 47.5383 123.105 47.488 123.2 47.4146C123.516 47.1698 123.465 46.6417 123.1 46.4935C122.896 46.4111 122.66 46.3828 122.437 46.3802C122.14 46.3763 121.823 46.3016 121.525 46.5038V47.5073Z" fill="white"/>
<path d="M139.627 43.4648C140.115 43.403 140.518 43.3837 140.941 43.4713C141.113 44.1063 140.919 44.7543 141.071 45.401C141.197 45.4242 141.313 45.4525 141.431 45.4641C141.658 45.486 141.826 45.3933 141.944 45.1949C142.188 44.7878 142.437 44.3859 142.687 43.984C142.796 43.8101 142.909 43.64 143.031 43.4507C143.464 43.4017 143.887 43.3953 144.292 43.4481C144.392 43.6155 144.287 43.7122 144.227 43.8088C143.896 44.3305 143.557 44.8483 143.223 45.3675C143.112 45.5401 143.009 45.7153 142.899 45.8969C143.357 46.7896 143.95 47.5832 144.42 48.4978C144.148 48.5996 143.903 48.5532 143.668 48.5609C143.442 48.5686 143.216 48.5622 142.966 48.5622C142.511 47.9413 142.189 47.247 141.752 46.6145C141.622 46.599 141.502 46.5745 141.381 46.5745C141.283 46.5745 141.185 46.6016 141.062 46.6196C140.939 47.2444 141.081 47.8679 140.971 48.4604C140.505 48.5892 140.22 48.5944 139.643 48.4823C139.579 48.092 139.618 47.6824 139.611 47.2753C139.605 46.8425 139.61 46.4096 139.61 45.9768C139.61 45.544 139.609 45.1524 139.61 44.7401C139.612 44.3318 139.619 43.9221 139.624 43.4623L139.627 43.4648Z" fill="white"/>
<path d="M127.925 47.2711C127.904 47.7001 127.885 48.0866 127.865 48.5078C127.413 48.5993 126.996 48.5774 126.603 48.5271C126.563 48.482 126.546 48.4692 126.536 48.4511C126.526 48.4344 126.517 48.4138 126.517 48.3944C126.509 46.8731 126.501 45.3505 126.496 43.8291C126.496 43.7273 126.514 43.6256 126.527 43.489C126.665 43.4658 126.8 43.4233 126.937 43.422C127.595 43.4156 128.253 43.4182 128.911 43.422C129.307 43.4233 129.691 43.4993 130.05 43.6616C130.761 43.9811 131.119 44.5479 131.121 45.3182C131.122 46.0628 130.779 46.6167 130.099 46.9439C129.722 47.1256 129.32 47.1926 128.902 47.199C128.598 47.2042 128.289 47.1578 127.925 47.2724V47.2711ZM127.941 46.0924C128.414 46.1259 128.838 46.1904 129.253 46.0229C129.552 45.9031 129.693 45.6686 129.704 45.3505C129.715 45.0052 129.565 44.7244 129.262 44.6085C128.832 44.4449 128.391 44.4333 127.941 44.5788C127.871 45.0722 127.878 45.5398 127.941 46.0924Z" fill="white"/>
<path d="M149.349 47.5579C148.761 47.5579 148.208 47.5553 147.654 47.5579C147.49 47.5579 147.328 47.5746 147.137 47.5862C146.985 47.9005 146.834 48.211 146.682 48.5266C146.244 48.591 145.823 48.5601 145.355 48.5498C145.399 48.3862 145.413 48.2844 145.453 48.1942C146.149 46.6149 146.848 45.0382 147.553 43.4473H148.908C148.952 43.5065 149.027 43.58 149.065 43.6675C149.743 45.1902 150.415 46.7141 151.088 48.238C151.119 48.3089 151.133 48.3888 151.165 48.4983C150.931 48.5975 150.705 48.5524 150.489 48.5614C150.284 48.5691 150.079 48.5627 149.841 48.5627C149.685 48.2432 149.534 47.9353 149.349 47.5579ZM148.888 46.49C148.746 45.8201 148.49 45.2327 148.208 44.9338C147.942 45.4233 147.727 45.9142 147.597 46.49C148.043 46.5814 148.441 46.584 148.888 46.49Z" fill="white"/>
<path d="M112.743 48.5272C112.76 48.4229 112.758 48.3378 112.789 48.267C113.492 46.6683 114.199 45.0723 114.905 43.4762C115.384 43.3809 115.83 43.4144 116.263 43.4427C116.542 43.8562 118.35 47.9282 118.497 48.4667C118.396 48.6045 118.243 48.5543 118.109 48.562C117.945 48.571 117.779 48.5684 117.615 48.562C117.474 48.5568 117.333 48.5414 117.179 48.5298C117.032 48.2206 116.893 47.9269 116.761 47.6474C116.31 47.5379 115.243 47.5198 114.493 47.6087C114.425 47.7491 114.343 47.9114 114.265 48.075C114.194 48.2232 114.128 48.3713 114.057 48.5246C113.616 48.5774 113.192 48.5877 112.742 48.5259L112.743 48.5272ZM116.291 46.4738C116.103 45.9044 115.925 45.4059 115.607 44.8365C115.331 45.4175 115.074 45.9057 114.972 46.4931C115.419 46.5795 115.817 46.5962 116.291 46.4738Z" fill="white"/>
<path d="M67.9387 52.3662C67.9786 52.5092 67.9451 52.6251 67.8124 52.705L67.8047 52.7102C67.8536 52.6007 67.9026 52.4912 67.9515 52.3804L67.9387 52.3662Z" fill="white"/>
<path d="M67.8124 52.7034C67.8163 52.7318 67.8189 52.7601 67.8227 52.7872C67.8253 52.7756 67.8305 52.7614 67.8279 52.7511C67.824 52.7356 67.8124 52.7228 67.8047 52.7086L67.8124 52.7021V52.7034Z" fill="white"/>
<path d="M48.0876 67.1181C48.058 67.1013 48.0296 67.0859 48 67.0691C48.0142 67.073 48.0322 67.073 48.0412 67.082C48.0554 67.0949 48.0631 67.1155 48.0734 67.1322L48.0889 67.1168L48.0876 67.1181Z" fill="white"/>
</svg>
