<svg width="127" height="70" viewBox="0 0 127 70" fill="none" xmlns="http://www.w3.org/2000/svg">
<path d="M50.46 52.6715C43.3422 54.3462 36.3919 53.2576 29.5254 53.5926C24.7523 53.7601 19.0581 50.7455 17.3833 45.135C17.0484 44.1302 16.5459 43.8789 15.6248 43.9627C12.7777 43.9627 9.93059 44.0464 7.16723 43.9627C5.15751 43.8789 3.14779 43.544 1.6405 42.0367C0.300686 40.6131 -0.285486 39.0221 0.133206 37.0961C0.803113 34.249 1.38927 31.4019 1.8917 28.5548C2.22666 26.5451 2.39414 26.3776 4.4876 26.3776C9.26069 26.3776 13.95 26.3776 18.7231 26.3776C19.9792 26.3776 20.3979 25.9589 20.7328 24.7866C21.9889 20.2647 25.2547 17.7526 29.6929 16.664C31.2839 16.329 32.9587 16.2453 34.5497 16.2453C39.9089 16.1615 45.2682 16.2453 50.5437 16.2453C52.4697 16.2453 52.4697 16.2453 52.8047 14.3193C52.9721 13.0632 53.2234 11.8071 53.5583 10.551C53.7258 10.0486 54.2282 9.54619 54.6469 9.37871C57.9964 8.0389 61.346 6.78281 64.6955 5.443C69.2174 3.68449 73.823 2.00974 78.3449 0.251231C78.5124 0.167492 78.7636 0.167477 79.1823 0C79.6847 1.84224 80.1871 3.51703 80.6058 5.27553C81.3595 8.29012 82.1131 11.3884 82.783 14.403C83.0342 15.4079 83.7879 15.4916 84.5415 15.4916C88.6447 15.4916 92.7479 15.4916 96.8511 15.4916C98.0234 15.4916 98.9445 15.4916 98.4421 17.0827C98.3584 17.3339 98.8608 17.8363 99.2795 18.0038C99.6982 18.1712 100.201 18.0875 100.619 18.0875C108.491 18.0875 116.446 18.0875 124.317 18.0875C126.16 18.0875 126.327 18.1712 125.992 19.9298C125.155 24.2004 124.234 28.4711 123.229 32.7417C123.145 33.1604 122.475 33.6628 122.056 33.6628C120.968 33.7466 120.633 34.249 120.465 35.1701C120.382 35.6726 120.298 36.175 120.214 36.6774C120.047 37.4311 120.298 37.8498 121.051 37.9335C121.638 38.0173 122.14 38.101 121.973 38.9384C121.051 43.4602 120.047 48.0659 119.125 52.5877C118.874 53.6763 118.121 53.5926 117.367 53.5926C109.161 53.5926 100.954 53.5926 92.6641 53.5926C91.1568 53.5926 90.487 54.1788 90.487 55.5186C90.4032 56.9421 89.7333 57.2771 88.3935 57.2771C83.0342 57.1934 77.675 57.2771 72.3995 57.1933C71.3946 57.1933 70.8084 57.3608 70.6409 58.5332C70.306 60.4591 69.8036 62.3851 69.3849 64.3111C69.1336 65.4834 68.715 66.2371 67.2914 66.4046C62.0996 67.242 56.9916 68.3306 51.7998 69.2517C50.6275 69.5029 49.3714 69.6703 48.1991 69.9216C47.1942 70.1728 46.6918 69.8378 46.943 68.6655C47.6129 65.7346 48.199 62.8038 48.7852 59.873C49.4551 57.5283 49.9575 55.1836 50.46 52.6715ZM80.1034 19.0924C79.6009 16.9989 79.0985 14.9054 78.5123 12.7282C77.9262 10.2998 77.2563 7.87141 76.6701 5.443C76.5026 4.77309 76.1677 4.52188 75.4978 4.7731C69.7198 6.9503 64.0256 9.12749 58.3314 11.3884C57.7452 11.6396 57.2428 12.3933 57.0753 13.0632C56.5729 14.738 56.3217 16.4127 55.9867 18.1712C55.568 20.0972 55.2331 22.0232 54.8144 24.2841C56.9078 23.698 58.6664 23.1118 60.7598 22.5257C60.5923 23.6143 60.5086 24.4516 60.3411 25.289C59.755 28.0524 59.085 30.8157 58.4989 33.5791C57.494 38.4359 56.4891 43.2928 55.4005 48.1496C54.2282 53.5088 53.1396 58.9519 51.9673 64.3111C51.7161 65.3997 51.9673 65.8184 53.1396 65.5672C56.9078 64.8973 60.7598 64.2274 64.528 63.4737C65.1142 63.39 65.7841 62.8038 65.9516 62.3014C66.5378 60.1242 66.9565 57.8633 67.4589 55.6023C68.4638 51.1642 69.3849 46.8098 70.3897 42.3716C70.4735 41.9529 70.8084 41.5343 71.0596 41.1156C71.7295 42.5391 71.9808 43.8789 72.3157 45.135C72.9019 47.6472 73.4881 50.0756 74.0742 52.5877C74.2417 53.3414 74.6604 53.8438 75.5815 53.8438C79.0148 53.8438 82.4481 53.8438 85.8813 53.7601C86.3838 53.7601 87.1374 53.1739 87.3049 52.6715C87.7236 51.4991 87.8073 50.243 88.0585 49.0707C88.8959 45.135 89.6496 41.1993 90.487 37.2636C91.0731 34.3327 91.6593 31.4856 92.3292 28.5548C92.9154 25.7914 93.4178 23.0281 94.004 20.2647C94.2552 19.0924 93.7527 18.7574 92.6641 18.7574C89.3146 18.8412 85.9651 18.7574 82.6993 18.7574C81.8619 18.9249 81.1082 19.0086 80.1034 19.0924ZM37.1456 50.0756C37.1456 50.1593 37.1456 50.243 37.1456 50.3268C39.6577 50.3268 42.1699 50.3268 44.682 50.3268C48.4503 50.3268 52.2185 48.1496 53.1396 44.0464C54.312 38.5197 55.4843 32.9929 56.5729 27.4662C56.7404 26.5451 56.0705 26.6288 55.568 26.7963C54.3957 27.1312 53.3071 27.5499 52.2185 27.8849C51.0462 28.2199 50.7112 27.9686 51.0462 26.7126C51.4649 24.9541 51.7998 23.1118 52.1347 21.3533C52.4697 19.5948 52.386 19.5948 50.6275 19.5948C44.7658 19.5948 38.8203 19.5948 32.9587 19.5948C32.0375 19.5948 31.0327 19.6785 30.1116 19.9298C26.6783 21.0184 24.6686 23.363 24.1661 27.0475C23.8312 29.2247 23.8312 29.2247 21.5702 29.2247C16.6297 29.2247 11.6891 29.2247 6.74853 29.2247C6.07863 29.2247 5.49246 29.2247 5.32499 30.0621C4.90629 32.2393 4.32012 34.4165 3.98517 36.5937C3.56647 39.692 4.90629 41.1156 8.08835 41.1156C11.9403 41.1156 15.876 41.1156 19.728 41.1156C20.6491 41.1156 21.2353 41.283 21.1515 42.3716C20.7328 46.4748 24.5011 49.8244 27.8506 50.0756C30.8652 50.2431 34.0473 50.0756 37.1456 50.0756ZM107.151 30.9832C107.151 30.8157 107.151 30.6483 107.235 30.5645C107.737 30.5645 108.239 30.4808 108.658 30.4808C111.924 30.4808 115.106 30.3971 118.372 30.4808C119.712 30.4808 120.214 29.9784 120.465 28.7223C120.8 26.7126 121.135 24.7866 121.638 22.8606C121.973 21.6883 121.638 21.437 120.549 21.437C116.781 21.437 112.929 21.437 109.161 21.437C105.56 21.437 101.959 21.437 98.3584 21.437C97.6884 21.437 97.0185 21.3533 96.7673 22.3582C96.1812 25.4565 95.4275 28.6386 94.8413 31.7369C93.8365 36.8449 92.8316 41.9529 91.743 46.9772C90.9894 50.3268 90.9894 50.3268 94.3389 50.3268C101.038 50.3268 107.737 50.3268 114.436 50.3268C115.608 50.3268 116.111 49.8244 116.362 48.7358C116.697 46.726 117.199 44.8001 117.618 42.8741C117.869 41.5343 117.702 41.1993 116.278 41.1993C113.013 41.1993 109.831 41.1993 106.565 41.1993C105.979 41.1993 105.476 41.0318 104.89 41.0318C104.89 40.8643 104.89 40.7806 104.89 40.6131C105.392 40.5294 105.895 40.4457 106.397 40.3619C108.909 40.3619 111.422 40.2782 113.934 40.3619C115.357 40.4457 115.943 39.7757 116.111 38.5197C116.446 36.5937 116.865 34.6677 117.283 32.7417C117.534 31.4019 117.367 31.1507 115.943 31.1507C113.515 31.1507 111.087 31.1507 108.658 31.1507C108.156 31.1507 107.653 31.0669 107.151 30.9832Z" fill="black"/>
<path d="M80.1051 19.0926C81.0263 19.0088 81.7799 18.9251 82.5336 18.8413C85.8831 18.8413 89.2326 18.8413 92.4984 18.8413C93.587 18.8413 94.0895 19.1763 93.8383 20.3486C93.2521 23.112 92.7497 25.8754 92.1635 28.6387C91.5773 31.5696 90.9911 34.4167 90.3212 37.3475C89.4839 41.2832 88.7302 45.2189 87.8928 49.1546C87.6416 50.327 87.5579 51.583 87.1392 52.7554C86.9717 53.2578 86.2181 53.844 85.7156 53.844C82.2823 53.9277 78.8491 53.9277 75.4158 53.9277C74.4947 53.9277 74.076 53.4253 73.9085 52.6717C73.3223 50.1595 72.7362 47.7311 72.15 45.2189C71.815 43.8791 71.5638 42.6231 70.8939 41.1995C70.6427 41.6182 70.3078 42.0369 70.224 42.4556C69.2192 46.81 68.2143 51.2481 67.2932 55.6862C66.7907 57.9472 66.3721 60.1244 65.7859 62.3853C65.6184 62.8877 64.8648 63.4739 64.3623 63.5577C60.5941 64.3113 56.7421 64.9812 52.9739 65.6511C51.8853 65.9023 51.6341 65.4836 51.8016 64.395C52.9739 59.0358 54.1463 53.5928 55.2349 48.2335C56.2397 43.3767 57.2446 38.5199 58.3332 33.663C58.9193 30.8997 59.5892 28.1363 60.1754 25.3729C60.3429 24.5356 60.4266 23.6982 60.5941 22.6096C58.5006 23.1957 56.7421 23.6982 54.6487 24.3681C55.0674 22.1071 55.4861 20.1812 55.821 18.2552C56.156 16.5804 56.4072 14.8219 56.9096 13.1471C57.0771 12.4772 57.5795 11.7236 58.1657 11.4724C63.8599 9.21143 69.6379 7.11797 75.3321 4.85703C76.0857 4.60582 76.3369 4.85702 76.5044 5.52693C77.0906 7.95534 77.7605 10.3838 78.3467 12.8122C79.1003 14.9056 79.6027 16.9991 80.1051 19.0926ZM57.8307 21.186C59.338 20.7673 60.6778 20.3486 62.1014 20.0137C63.4412 19.595 63.6924 19.7625 63.4412 21.186C62.6876 25.2055 61.7664 29.2249 60.9291 33.2443C60.0917 37.0126 59.2543 40.7808 58.5006 44.549C57.6633 48.4847 56.8259 52.3367 55.9885 56.2724C55.4861 58.4496 55.1511 60.7105 54.6487 63.0552C55.1511 63.0552 55.4023 63.139 55.7373 63.139C58.2494 62.7203 60.6778 62.3016 63.1063 61.7991C63.4412 61.7154 63.8599 61.0455 64.0274 60.6268C64.6973 58.1984 65.1997 55.6862 65.7859 53.1741C66.5395 49.7408 67.3769 46.2238 68.1306 42.7905C68.8842 39.2735 69.6379 35.7565 70.3915 32.2395C70.4752 31.8208 70.8939 31.5696 71.3964 30.8997C72.0663 33.4956 72.5687 35.7565 73.0711 37.9337C74.076 42.2044 74.9971 46.5588 76.002 50.8294C76.0857 51.2481 76.7556 51.7505 77.1743 51.8343C79.519 51.918 81.8637 51.918 84.1246 51.8343C84.5433 51.8343 85.2132 51.3319 85.2969 50.9969C85.7156 49.6571 85.8831 48.3173 86.2181 46.9774C86.9717 43.0417 87.8091 39.106 88.5627 35.1703C89.4001 30.8159 90.3212 26.3778 91.2424 22.0234C91.4936 21.0185 91.0749 20.6836 90.1537 20.6836C88.3115 20.6836 86.4693 20.6836 84.7108 20.6836C82.7848 20.6836 82.5336 20.8511 82.2823 22.777C82.0311 24.5356 81.7799 26.294 81.445 28.0526C81.3612 28.3875 81.0263 28.7225 80.7751 29.0574C80.5238 28.7225 80.1889 28.4713 80.1051 28.1363C78.4304 21.6047 76.7556 15.0731 75.2483 8.54152C74.9971 7.45292 74.4947 7.28544 73.6573 7.62039C69.1354 9.3789 64.5298 11.1374 60.0079 12.8959C59.673 12.9797 59.338 13.3984 59.2543 13.7333C58.7519 15.743 58.3332 17.7527 57.9145 19.7625C57.747 20.1812 57.8307 20.5999 57.8307 21.186Z" fill="white"/>
<path d="M37.1478 50.0755C33.9658 50.0755 30.8675 50.243 27.6854 49.9918C24.3359 49.7405 20.5676 46.391 20.9863 42.2878C21.0701 41.1992 20.4839 41.0317 19.5628 41.0317C15.7108 41.0317 11.7751 41.0317 7.92315 41.0317C4.74109 41.0317 3.40126 39.6082 3.81996 36.5099C4.15491 34.3327 4.74108 32.1555 5.15978 29.9783C5.32725 29.1409 5.99716 29.1409 6.58333 29.1409C11.5239 29.1409 16.4645 29.1409 21.405 29.1409C23.666 29.1409 23.7497 29.1409 24.0009 26.9637C24.5033 23.3629 26.5131 20.9345 29.9463 19.8459C30.8675 19.5947 31.7886 19.511 32.7934 19.511C38.6551 19.511 44.6006 19.511 50.4622 19.511C52.2207 19.511 52.3045 19.511 51.9696 21.2695C51.6346 23.028 51.2996 24.8702 50.8809 26.6288C50.6297 27.8848 50.8809 28.2198 52.0533 27.8011C53.2256 27.4661 54.3142 27.0474 55.4028 26.7125C55.989 26.545 56.6589 26.545 56.4077 27.3824C55.3191 32.9091 54.1467 38.4358 52.9744 43.9626C52.0533 47.982 48.285 50.1592 44.5168 50.243C42.0047 50.243 39.4925 50.243 36.9804 50.243C37.1478 50.243 37.1478 50.1592 37.1478 50.0755ZM53.9793 29.2246C52.2208 29.7271 50.881 30.2295 49.4574 30.6482C48.2851 30.9831 47.9501 30.8157 48.2013 29.6433C48.7038 27.2987 49.1224 24.954 49.7086 22.5256C49.9598 21.6045 49.6249 21.2695 48.7037 21.2695C43.177 21.2695 37.6503 21.1857 32.1235 21.3532C29.0252 21.437 26.7643 23.7816 26.1781 26.88C25.7594 29.2246 25.5082 29.1409 28.1878 29.1409C29.7789 29.1409 29.9463 29.3084 29.6114 30.8994C29.0252 33.579 28.439 36.3424 27.8529 39.022C27.3504 41.1155 27.3504 41.0317 25.3407 41.1155C23.2473 41.1155 22.7448 41.6179 23.1635 43.7114C23.6659 46.391 26.1781 48.4007 29.4439 48.4845C34.6357 48.652 39.7437 48.5682 44.9355 48.4845C47.6151 48.4845 50.6297 46.3073 51.0484 43.7114C51.8021 39.8594 52.6394 35.9237 53.4768 32.0717C53.728 31.3181 53.8118 30.4807 53.9793 29.2246ZM17.3018 30.9831C14.4547 30.9831 11.6914 30.9831 8.84426 30.9831C7.75566 30.9831 7.25323 31.4018 7.00202 32.4067C6.7508 33.914 6.33211 35.4213 6.16463 36.9286C5.99716 38.5196 6.49958 39.1895 8.17435 39.1895C13.6173 39.1895 19.1441 39.1895 24.5871 39.1895C25.0058 39.1895 25.6757 38.6871 25.7594 38.2684C26.2618 36.5936 26.5968 34.8351 26.9317 33.0766C27.2667 31.0669 27.2667 31.0669 25.257 31.0669C22.5773 30.9831 19.8977 30.9831 17.3018 30.9831Z" fill="white"/>
<path d="M107.154 30.9834C107.656 31.0672 108.159 31.1509 108.661 31.1509C111.09 31.1509 113.518 31.1509 115.946 31.1509C117.37 31.1509 117.537 31.4021 117.286 32.7419C116.868 34.6679 116.533 36.5939 116.114 38.5199C115.863 39.776 115.36 40.3621 113.937 40.3621C111.425 40.1947 108.912 40.2784 106.4 40.3621C105.898 40.3621 105.395 40.5296 104.893 40.6133C104.893 40.7808 104.893 40.8646 104.893 41.032C105.479 41.1158 105.982 41.1995 106.568 41.1995C109.833 41.1995 113.016 41.1995 116.281 41.1995C117.705 41.1995 117.872 41.4507 117.621 42.8743C117.202 44.8003 116.7 46.81 116.365 48.736C116.198 49.9083 115.611 50.4107 114.439 50.327C107.74 50.327 101.041 50.327 94.3419 50.327C90.9923 50.327 91.0761 50.2433 91.746 46.9775C92.8346 41.8694 93.8395 36.7614 94.8443 31.7371C95.5142 28.6388 96.1841 25.5404 96.7703 22.3584C96.9378 21.3535 97.6077 21.4373 98.3613 21.4373C101.962 21.4373 105.563 21.4373 109.164 21.4373C112.932 21.4373 116.784 21.4373 120.552 21.4373C121.641 21.4373 121.976 21.6885 121.641 22.8608C121.138 24.7868 120.719 26.7965 120.468 28.7225C120.301 29.9786 119.715 30.481 118.375 30.481C115.109 30.3973 111.927 30.481 108.661 30.481C108.159 30.481 107.656 30.5647 107.238 30.5647C107.154 30.6485 107.154 30.816 107.154 30.9834ZM103.972 48.4848C105.06 48.4848 106.065 48.4848 107.154 48.4848C108.242 48.4848 109.331 48.4848 110.42 48.4848C114.523 48.4848 114.439 48.4848 114.942 44.4653C115.109 43.293 114.69 42.8743 113.602 42.8743C110.503 42.8743 107.489 42.8743 104.39 42.8743C102.046 42.8743 102.046 42.8743 102.465 40.5296C102.465 40.3622 102.548 40.2784 102.548 40.1109C102.716 38.9386 103.302 38.4362 104.558 38.4362C107.238 38.5199 109.833 38.4362 112.513 38.4362C113.351 38.4362 113.937 38.2687 114.104 37.3476C114.272 36.3427 114.523 35.4216 114.69 34.4167C114.942 33.3281 114.607 32.8257 113.434 32.8257C110.838 32.9094 108.326 32.9094 105.73 32.8257C105.228 32.8257 104.474 32.5745 104.39 32.2395C103.637 30.5647 105.06 28.4713 106.819 28.4713C110.168 28.4713 113.518 28.4713 116.784 28.4713C117.286 28.4713 118.04 28.0526 118.207 27.6339C118.626 26.7965 118.71 25.7917 118.961 24.8705C119.296 23.1958 119.128 23.0283 117.454 23.0283C111.843 23.0283 106.233 23.0283 100.622 23.0283C98.6125 23.0283 98.5288 23.112 98.1938 25.1217C97.6077 27.9688 97.1052 30.816 96.5191 33.6631C95.598 38.0175 94.7606 42.4556 93.8395 46.81C93.5883 48.0661 94.0069 48.401 95.1793 48.401C98.1101 48.4848 101.041 48.4848 103.972 48.4848Z" fill="white"/>
<path d="M57.8299 21.186C57.8299 20.5998 57.7462 20.1811 57.8299 19.8461C58.2486 17.8364 58.6673 15.8267 59.1697 13.817C59.2534 13.482 59.5884 13.0633 59.9233 12.9796C64.4452 11.2211 69.0508 9.46258 73.5727 7.70408C74.4101 7.36912 74.9125 7.53661 75.1637 8.62521C76.7548 15.1568 78.3458 21.6884 80.0206 28.22C80.1043 28.5549 80.4392 28.8062 80.6905 29.1411C80.9417 28.8062 81.2766 28.4712 81.3604 28.1362C81.6953 26.3777 81.9465 24.6192 82.1977 22.8607C82.449 20.9348 82.7002 20.7673 84.6262 20.7673C86.4684 20.7673 88.3107 20.7673 90.0692 20.7673C90.9903 20.7673 91.409 21.0185 91.1578 22.1071C90.2366 26.4615 89.3992 30.8159 88.4781 35.254C87.7245 39.1897 86.8871 43.1254 86.1335 47.0611C85.8822 48.4009 85.631 49.7407 85.2123 51.0806C85.1286 51.4993 84.4587 51.9179 84.04 51.9179C81.6953 52.0017 79.3507 52.0017 77.0897 51.9179C76.671 51.9179 76.0011 51.3318 75.9174 50.9131C74.9125 46.6424 73.9076 42.288 72.9865 38.0174C72.4841 35.8402 71.8979 33.663 71.3118 30.9833C70.8093 31.6533 70.3906 31.9882 70.3069 32.3232C69.4695 35.8402 68.7996 39.3572 68.046 42.8742C67.2923 46.3075 66.4549 49.8245 65.7013 53.2578C65.1151 55.7699 64.6127 58.1983 63.9428 60.7105C63.859 61.1292 63.4403 61.7991 63.0217 61.8828C60.5932 62.3853 58.0811 62.8039 55.6527 63.2226C55.3177 63.3064 55.0665 63.2227 54.5641 63.1389C54.9828 60.7942 55.4015 58.617 55.9039 56.3561C56.7413 52.4204 57.5787 48.5684 58.416 44.6327C59.2534 40.8645 60.0908 37.0963 60.8445 33.328C61.6818 29.3086 62.5192 25.2892 63.3566 21.2697C63.6078 19.8462 63.4404 19.6787 62.0168 20.0974C60.7607 20.3486 59.4209 20.7673 57.8299 21.186Z" fill="#CF1E55"/>
<path d="M53.979 29.2249C53.8115 30.3973 53.644 31.2346 53.4765 32.072C52.6391 35.924 51.8018 39.776 51.0481 43.7117C50.5457 46.3075 47.6148 48.401 44.9352 48.4848C39.7434 48.4848 34.6354 48.5685 29.4436 48.4848C26.1778 48.401 23.7494 46.3913 23.1632 43.7117C22.7445 41.6182 23.1632 41.1158 25.3404 41.1158C27.3501 41.1158 27.3501 41.1158 27.8526 39.0223C28.4387 36.3427 29.1086 33.5793 29.6111 30.8997C29.946 29.3087 29.7785 29.1412 28.1875 29.1412C25.5916 29.1412 25.8428 29.2249 26.1778 26.8802C26.6802 23.8657 29.0249 21.4372 32.1232 21.3535C37.65 21.2698 43.1767 21.2698 48.7034 21.2698C49.6245 21.2698 49.8758 21.6047 49.7083 22.5259C49.2059 24.8705 48.7034 27.2152 48.201 29.6436C47.9498 30.816 48.2848 31.0672 49.4571 30.6485C50.8806 30.2298 52.2205 29.8111 53.979 29.2249ZM38.4874 41.032C39.4922 41.032 40.4971 41.032 41.5019 41.032C43.0092 40.9483 43.9303 40.2784 44.2653 38.7711C44.7677 36.5939 45.1864 34.4167 45.6051 32.2395C46.0238 30.0623 44.8515 28.6387 42.6743 28.6387C40.9995 28.6387 39.4085 28.6387 37.7337 28.6387C35.2216 28.6387 34.3842 29.3086 33.9655 31.8208C33.5468 33.7468 33.2118 35.7565 32.7931 37.6825C32.3744 39.6085 33.463 41.032 35.4728 41.032C36.4776 41.032 37.4825 41.032 38.4874 41.032Z" fill="black"/>
<path d="M15.0403 34.8353C15.2915 34.9191 15.459 34.9191 15.7102 35.0028C15.6265 35.589 15.459 36.1752 15.5427 36.7613C15.5427 37.18 15.794 37.5987 15.8777 38.0174C16.3801 37.7662 17.1338 37.6824 17.385 37.2638C17.7199 36.7613 17.8874 36.0077 17.9712 35.3378C18.2224 33.7468 17.8037 33.3281 16.2126 33.0768C15.8777 32.9931 15.3753 32.7419 15.3753 32.4907C15.2915 31.8208 15.2078 31.3184 14.3704 31.3184C13.533 31.3184 13.1143 31.737 12.9469 32.4907C12.7794 33.2443 12.1095 33.4118 11.8583 32.7419C11.4396 31.8208 10.7697 31.5696 10.1835 31.9882C9.51358 32.4069 9.01115 33.1606 8.75993 33.9142C8.50872 34.5841 8.75993 35.4215 8.75993 36.1752C8.67619 37.4312 9.26236 37.9337 10.5184 37.9337C11.1883 37.9337 11.7745 37.8499 12.4444 37.9337C13.7005 38.1012 14.2029 37.515 14.4541 36.4264C14.5379 36.0077 14.7891 35.4215 15.0403 34.8353Z" fill="#CF1E55"/>
<path d="M21.1532 38.1011C22.9117 38.1011 24.2515 36.8451 24.2515 35.3378C24.2515 34.1654 23.1629 33.2443 21.7394 33.2443C19.9809 33.2443 18.5573 34.4167 18.5573 35.924C18.4736 37.3475 19.3947 38.1011 21.1532 38.1011Z" fill="#CF1E55"/>
<path fill-rule="evenodd" clip-rule="evenodd" d="M17.3012 30.9834H25.2564C27.2661 30.9834 27.2661 30.9834 26.9312 32.9931C26.5962 34.7516 26.2612 36.5101 25.7588 38.1849C25.6751 38.6036 25.0052 39.106 24.5865 39.106C19.1435 39.1897 13.6167 39.1897 8.17375 39.106C6.58272 39.106 5.99656 38.4361 6.16404 36.8451C6.33151 35.3378 6.75021 33.8305 7.00142 32.3232C7.1689 31.3183 7.75506 30.8997 8.84366 30.8997C11.6064 30.9834 14.4527 30.9834 17.2992 30.9834H17.3012ZM15.7102 35.0028C15.459 34.9191 15.2915 34.9191 15.0403 34.8353C14.7891 35.4215 14.5379 36.0077 14.4541 36.4264C14.2029 37.515 13.7005 38.1012 12.4444 37.9337C11.7745 37.8499 11.1883 37.9337 10.5184 37.9337C9.26236 37.9337 8.67619 37.4312 8.75993 36.1752C8.75993 35.4215 8.50872 34.5841 8.75993 33.9142C9.01115 33.1606 9.51358 32.4069 10.1835 31.9882C10.7697 31.5696 11.4396 31.8208 11.8583 32.7419C12.1095 33.4118 12.7794 33.2443 12.9469 32.4907C13.1143 31.737 13.533 31.3184 14.3704 31.3184C15.2078 31.3184 15.2915 31.8208 15.3753 32.4907C15.3753 32.7419 15.8777 32.9931 16.2126 33.0768C17.8037 33.3281 18.2224 33.7468 17.9712 35.3378C17.8874 36.0077 17.7199 36.7613 17.385 37.2638C17.1338 37.6824 16.3801 37.7662 15.8777 38.0174C15.794 37.5987 15.5427 37.18 15.5427 36.7613C15.459 36.1752 15.6265 35.589 15.7102 35.0028ZM24.2515 35.3378C24.2515 36.8451 22.9117 38.1011 21.1532 38.1011C19.3947 38.1011 18.4736 37.3475 18.5573 35.924C18.5573 34.4167 19.9809 33.2443 21.7394 33.2443C23.1629 33.2443 24.2515 34.1654 24.2515 35.3378Z" fill="#CF1E55"/>
<path d="M103.969 48.4846C101.038 48.4846 98.1072 48.4846 95.1763 48.4846C94.004 48.4846 93.5016 48.1496 93.8366 46.8935C94.7577 42.5391 95.6788 38.1847 96.5162 33.7466C97.1023 30.8995 97.6885 28.0524 98.1909 25.2053C98.6096 23.1956 98.6096 23.1118 100.619 23.1118C106.23 23.1118 111.84 23.1118 117.451 23.1118C119.126 23.1118 119.293 23.2793 118.958 24.9541C118.791 25.8752 118.623 26.88 118.204 27.7174C118.037 28.1361 117.283 28.5548 116.781 28.5548C113.431 28.6386 110.082 28.5548 106.816 28.5548C105.057 28.5548 103.55 30.732 104.388 32.323C104.555 32.658 105.309 32.8255 105.727 32.9092C108.323 32.993 110.835 32.993 113.431 32.9092C114.687 32.9092 115.022 33.3279 114.687 34.5002C114.436 35.5051 114.269 36.4262 114.101 37.4311C113.934 38.3522 113.264 38.5197 112.51 38.5197C109.831 38.5197 107.235 38.6034 104.555 38.5197C103.299 38.5197 102.713 38.9384 102.545 40.1944C102.545 40.3619 102.462 40.4457 102.462 40.6131C102.043 42.9578 102.043 42.9578 104.388 42.9578C107.486 42.9578 110.5 42.9578 113.599 42.9578C114.771 42.9578 115.106 43.2928 114.939 44.5489C114.436 48.5683 114.436 48.5683 110.417 48.5683C109.328 48.5683 108.24 48.5683 107.151 48.5683C106.062 48.4845 105.057 48.4846 103.969 48.4846Z" fill="black"/>
<path d="M38.4869 41.0319C37.482 41.0319 36.4771 41.0319 35.4723 41.0319C33.4625 40.9482 32.3739 39.6084 32.7926 37.6824C33.2113 35.7564 33.63 33.7467 33.965 31.8207C34.4674 29.3923 35.2211 28.6387 37.7332 28.6387C39.408 28.6387 40.999 28.6387 42.6738 28.6387C44.851 28.6387 46.0233 30.0622 45.6046 32.2394C45.1859 34.4166 44.6835 36.5938 44.2648 38.771C43.9298 40.2783 43.0087 41.0319 41.5014 41.0319C40.4966 41.0319 39.4917 41.0319 38.4869 41.0319ZM38.4031 39.2735C39.1568 39.2735 39.8267 39.2735 40.5803 39.2735C41.5852 39.2735 42.0876 38.8548 42.3388 37.8499C42.7575 35.9239 43.0925 33.9979 43.5949 32.072C43.8461 30.8996 43.4274 30.3972 42.3388 30.3972C40.9153 30.3972 39.408 30.3972 37.9844 30.3972C36.8958 30.3972 36.3934 31.0671 36.1422 32.072C35.8072 33.9979 35.3885 35.9239 34.9698 37.8499C34.8024 38.771 35.1373 39.1897 35.9747 39.1897C36.8121 39.2735 37.5657 39.2735 38.4031 39.2735Z" fill="white"/>
<path d="M38.4751 38.7925C37.6378 38.7925 36.8004 38.7925 36.0467 38.7925C35.2094 38.7925 34.8744 38.2901 35.0419 37.4527C35.4606 35.5267 35.7955 33.6008 36.2142 31.6748C36.3817 30.6699 36.8841 30 38.0565 30C39.48 30 40.9873 30 42.4109 30C43.4995 30 43.9182 30.5862 43.6669 31.6748C43.2482 33.6008 42.8296 35.5267 42.4109 37.4527C42.2434 38.3738 41.6572 38.8763 40.6524 38.8763C39.9824 38.7925 39.2288 38.7925 38.4751 38.7925Z" fill="black"/>
<path d="M11.9344 35.6378C11.9248 35.6763 11.92 35.7294 11.92 35.7969C11.92 36.0477 12.0574 36.1732 12.3324 36.1732C12.4819 36.1732 12.6338 36.1273 12.7882 36.0357L12.9546 36.8388C12.7038 36.9931 12.3806 37.0703 11.9851 37.0703C11.6185 37.0703 11.3243 36.9738 11.1024 36.7809C10.8805 36.588 10.7696 36.3227 10.7696 35.985C10.7696 35.8886 10.7817 35.7752 10.8058 35.645L11.1169 34.075H10.5164L10.69 33.2068H11.2905L11.4786 32.259H12.6073L12.4192 33.2068H13.3887L13.215 34.075H12.2455L11.9344 35.6378Z" fill="white"/>
<path d="M16.5834 33.0621C17.0175 33.0621 17.3624 33.1779 17.618 33.4094C17.8737 33.6409 18.0015 33.9689 18.0015 34.3933C18.0015 34.5477 17.9846 34.702 17.9508 34.8564L17.5167 37.0124H16.3881L16.8077 34.9287C16.827 34.8467 16.8367 34.7575 16.8367 34.661C16.8367 34.4585 16.7812 34.3041 16.6702 34.198C16.5593 34.0919 16.3929 34.0388 16.171 34.0388C15.8816 34.0388 15.6405 34.1232 15.4475 34.2921C15.2594 34.456 15.1316 34.7044 15.0641 35.0373L14.6734 37.0124H13.5447L14.6155 31.644H15.7442L15.3824 33.4745C15.7152 33.1996 16.1156 33.0621 16.5834 33.0621Z" fill="white"/>
<path d="M22.8147 34.7768C22.8147 34.9553 22.793 35.153 22.7496 35.3701H19.7687C19.8073 35.9006 20.1426 36.1659 20.7744 36.1659C20.9722 36.1659 21.1603 36.1346 21.3387 36.0719C21.522 36.0092 21.6812 35.9199 21.8163 35.8042L22.2865 36.5494C22.0695 36.723 21.8211 36.8532 21.5413 36.9401C21.2616 37.0269 20.9673 37.0703 20.6587 37.0703C20.2583 37.0703 19.9062 37.0004 19.6023 36.8605C19.3033 36.7158 19.0718 36.5108 18.9078 36.2455C18.7486 35.9802 18.669 35.6739 18.669 35.3267C18.669 34.8974 18.7655 34.5115 18.9584 34.1691C19.1562 33.8218 19.4287 33.5517 19.776 33.3587C20.1233 33.161 20.5188 33.0621 20.9625 33.0621C21.3387 33.0621 21.6643 33.132 21.9392 33.2719C22.219 33.4118 22.4336 33.612 22.5832 33.8724C22.7375 34.1329 22.8147 34.4343 22.8147 34.7768ZM20.9119 33.9086C20.6466 33.9086 20.4223 33.9809 20.239 34.1256C20.0557 34.2655 19.9255 34.4609 19.8483 34.7117H21.7801C21.7801 34.4609 21.7005 34.2655 21.5413 34.1256C21.387 33.9809 21.1772 33.9086 20.9119 33.9086Z" fill="white"/>
</svg>
