<svg width="102" height="100" viewBox="0 0 102 100" fill="none" xmlns="http://www.w3.org/2000/svg">
<g clip-path="url(#clip0_0_192)">
<path d="M42.1533 25.356C42.482 26.6463 42.8109 27.9368 43.1396 29.2272C44.7835 30.049 46.4273 30.8711 48.071 31.6929C46.0985 29.5806 44.1259 27.4683 42.1533 25.356Z" fill="white"/>
<path d="M59.8299 25.356C57.8574 27.4683 55.8847 29.5806 53.9121 31.6929C55.556 30.8711 57.1998 30.049 58.8436 29.2272C59.1724 27.9368 59.5011 26.6463 59.8299 25.356Z" fill="white"/>
<path d="M23.2324 10.7999C24.4899 12.5751 25.7474 14.3505 27.0051 16.1258C29.2981 13.3395 31.5913 10.5533 33.8843 7.76704C31.4433 9.09855 29.0023 10.43 26.5611 11.7614C30.4078 8.92594 34.2543 6.09033 38.1008 3.25471C41.0843 9.86286 44.0678 16.471 47.0514 23.0792C44.3391 15.3861 41.6268 7.69305 38.9145 0C33.6871 3.59993 28.4598 7.19996 23.2324 10.7999Z" fill="white"/>
<path d="M63.068 0C60.3558 7.69305 57.6434 15.3861 54.9312 23.0792C57.9146 16.471 60.8982 9.86286 63.8817 3.25471C67.7282 6.09033 71.5748 8.92594 75.4213 11.7614C72.9803 10.43 70.5392 9.09844 68.0981 7.76704C70.3913 10.5533 72.6844 13.3395 74.9775 16.1258C76.2351 14.3505 77.4926 12.5751 78.7501 10.7998C73.5227 7.19986 68.2954 3.59993 63.068 0Z" fill="white"/>
<path d="M76.4871 42.1948L50.9916 43.181L25.496 42.1948C19.2543 45.9755 13.0126 49.7562 6.771 53.5371C14.464 52.5837 22.1571 51.6302 29.8502 50.6769C32.7433 49.1317 35.6364 47.5864 38.5295 46.0413C42.6854 46.8158 46.8414 47.5902 50.9972 48.3649C55.1493 47.5902 59.3015 46.8158 63.4537 46.0413C66.3468 47.5864 69.2399 49.1317 72.133 50.6769C79.826 51.6302 87.5191 52.5837 95.2122 53.5371C88.9706 49.7562 82.7289 45.9755 76.4871 42.1948Z" fill="#F7BD04"/>
<path d="M0 21.4848L13.2308 38.6956C25.8176 39.1887 38.4044 39.6819 50.9912 40.1751C39.6209 33.4518 28.2505 26.7286 16.8801 20.0054C11.2533 20.4985 5.62671 20.9917 0 21.4848Z" fill="#F7BD04"/>
<path d="M85.1023 20.0054C73.732 26.7287 62.3616 33.4518 50.9912 40.1751C63.578 39.682 76.1649 39.1888 88.7516 38.6957C93.1619 32.9587 97.5722 27.2219 101.982 21.4849C96.3558 20.9917 90.729 20.4986 85.1023 20.0054Z" fill="#F7BD04"/>
<path d="M5.09394 23.6058C8.97324 23.2031 12.8526 22.8003 16.7321 22.3975C20.2895 23.6746 23.847 24.9517 27.4044 26.2287C23.8962 24.1544 20.3881 22.0801 16.88 20.0059C11.2533 20.499 5.62671 20.9921 0 21.4852L13.2307 38.696C10.5185 33.6659 7.8062 28.6358 5.09394 23.6058Z" fill="white"/>
<path d="M14.8355 51.0014C16.989 48.9137 19.1426 46.826 21.2962 44.7383C16.4543 47.6712 11.6124 50.6041 6.77051 53.537L29.8498 50.6767C32.287 49.375 34.7243 48.0733 37.1616 46.7715C34.5928 47.5837 32.024 48.3959 29.4552 49.2082C24.582 49.8059 19.7088 50.4037 14.8355 51.0014Z" fill="white"/>
<path d="M96.8885 23.6058C94.1763 28.6358 91.464 33.6659 88.7516 38.696C93.162 32.9591 97.5722 27.2221 101.982 21.4852C96.3558 20.9921 90.7292 20.499 85.1025 20.0059C81.5943 22.0801 78.0861 24.1544 74.5781 26.2287C78.1355 24.9517 81.6929 23.6746 85.2503 22.3975C89.1297 22.8003 93.0091 23.2031 96.8885 23.6058Z" fill="white"/>
<path d="M87.1468 51.0011C82.2736 50.4034 77.4004 49.8056 72.527 49.2078C69.9583 48.3956 67.3896 47.5833 64.8208 46.7712C67.258 48.0729 69.6952 49.3747 72.1326 50.6763L95.2117 53.5366C90.37 50.6037 85.5281 47.6708 80.6862 44.7378L87.1468 51.0011Z" fill="white"/>
<path d="M83.367 52.5078V59.4612C83.367 59.4612 83.367 69.9602 83.367 76.6875C83.367 79.6018 59.2039 95.7831 50.2914 95.7831C41.379 95.7831 17.2159 80.0993 17.2159 76.6875C17.2159 73.2758 17.2159 59.4612 17.2159 59.4612V55.0634V52.5078H13.5182V55.5216V59.4612V74.5528C13.5182 74.5528 13.3838 77.1279 13.5182 78.7689C13.6527 80.41 37.9325 99.9999 50.2914 99.9999C62.6504 99.9999 87.0646 81.0943 87.0646 78.7689C87.0646 76.4436 87.0646 74.5528 87.0646 74.5528V59.4612V55.5216V52.5078H83.367Z" fill="white"/>
<path d="M39.2812 83.1313H62.7015L50.9914 89.892L39.2812 83.1313Z" fill="#F7BD04"/>
<path d="M37.8866 73.3164H33.1701V71.8977H37.8866V73.3164ZM37.8866 76.6543H33.1701V75.2355H37.8866V76.6543ZM38.7232 69.9785H29.1917H22.1802C24.518 70.6546 26.8544 71.3308 29.1917 72.0069V78.5731H33.1701L37.8866 78.5735L38.7232 78.5731C40.4584 78.5731 41.865 77.7193 41.865 76.6661V75.3655C41.865 74.7637 41.0612 74.2757 40.0697 74.2757C41.0612 74.2757 41.865 73.7879 41.865 73.186V71.8855C41.865 70.8323 40.4584 69.9785 38.7232 69.9785Z" fill="white"/>
<path d="M44.8887 78.5734H48.8666V78.5665H57.5617V76.6472H48.8666V75.2321H53.2141V73.3128H48.8666V71.8978H57.5617V69.9785H44.8887V78.5734Z" fill="white"/>
<path d="M72.8542 71.8978V71.8787C75.1705 71.2454 77.486 70.6119 79.8027 69.9785H72.8542H60.1812V78.5735H64.1591V78.5666H72.8542V76.6473H64.1591V75.2322H68.5066V73.3128H64.1591V71.8978H72.8542Z" fill="white"/>
<path d="M30.529 59.04H25.8207V57.0372H30.529V59.04ZM32.1035 61.6013C33.4269 61.6013 34.4996 60.5285 34.4996 59.2053V57.0203C34.4996 55.5802 33.0956 54.4126 31.3637 54.4126H21.8501V66.1654H25.8207V61.6642H27.8082L31.7239 66.1654H35.6944L31.7239 61.6013H32.1035Z" fill="white"/>
<path d="M46.0021 63.5416H41.2946V54.4131H37.3237V63.5578C37.3237 64.9979 38.7276 66.1655 40.4594 66.1655H41.2946L46.0028 66.1658L46.8373 66.1655C48.5692 66.1655 49.9732 64.9979 49.9732 63.5578V54.4131H46.0021V63.5416Z" fill="white"/>
<path d="M62.1418 58.9775H61.3066V66.1658H62.1418C63.8737 66.1658 65.2777 64.9983 65.2777 63.5582V61.5851C65.2777 60.145 63.8737 58.9775 62.1418 58.9775Z" fill="white"/>
<path d="M62.1416 54.4126H56.5985L55.7633 54.4128C54.0314 54.4128 52.6274 55.5804 52.6274 57.0206V58.9935C52.6274 60.4337 54.0314 61.6013 55.7633 61.6013H61.3054V58.977H56.5985V57.0369H65.2775V57.0203C65.2775 55.5802 63.8735 54.4126 62.1416 54.4126Z" fill="white"/>
<path d="M52.627 63.5582C52.627 64.9983 54.0309 66.1658 55.7627 66.1658H61.3055V63.5415H52.627V63.5582Z" fill="white"/>
<path d="M80.1323 58.9773V54.4131H76.1614V58.9773H71.4535V54.4131H67.4824V66.1658H71.4535V61.6016H76.1614V66.1658H80.1323V61.6016V58.9773Z" fill="white"/>
</g>
<defs>
<clipPath id="clip0_0_192">
<rect width="102" height="100" fill="white"/>
</clipPath>
</defs>
</svg>
