<svg width="55" height="54" viewBox="0 0 55 54" fill="none" xmlns="http://www.w3.org/2000/svg">
<g clip-path="url(#clip0_0_278)">
<path d="M22.7297 13.6922C22.907 14.389 23.0843 15.0859 23.2616 15.7827C24.148 16.2265 25.0343 16.6704 25.9207 17.1142C24.857 15.9735 23.7934 14.8329 22.7297 13.6922Z" fill="black"/>
<path d="M32.2612 13.6922C31.1976 14.8329 30.1339 15.9735 29.0703 17.1142C29.9567 16.6704 30.843 16.2265 31.7294 15.7827C31.9067 15.0859 32.0839 14.389 32.2612 13.6922Z" fill="black"/>
<path d="M12.5273 5.83195C13.2053 6.79055 13.8834 7.74927 14.5616 8.70793C15.798 7.20333 17.0345 5.69878 18.271 4.1942C16.9547 4.91322 15.6385 5.6322 14.3222 6.35116C16.3964 4.82001 18.4705 3.28878 20.5446 1.75754C22.1533 5.32594 23.7621 8.89434 25.3709 12.4628C23.9083 8.30849 22.4458 4.15425 20.9833 0C18.1646 1.94396 15.346 3.88798 12.5273 5.83195Z" fill="black"/>
<path d="M34.0073 0C32.5448 4.15425 31.0822 8.30849 29.6198 12.4628C31.2285 8.89434 32.8373 5.32594 34.446 1.75754C36.5201 3.28878 38.5943 4.82001 40.6684 6.35116C39.3521 5.6322 38.0358 4.91316 36.7196 4.1942C37.9561 5.69878 39.1926 7.20333 40.429 8.70793C41.1072 7.74927 41.7852 6.79055 42.4633 5.83189C39.6446 3.88792 36.826 1.94396 34.0073 0Z" fill="black"/>
<path d="M41.243 22.7851L27.4955 23.3176L13.7478 22.7851C10.3822 24.8267 7.0166 26.8682 3.65103 28.9099C7.79922 28.3951 11.9475 27.8802 16.0957 27.3654C17.6557 26.531 19.2157 25.6965 20.7757 24.8622C23.0166 25.2804 25.2576 25.6986 27.4985 26.1169C29.7374 25.6986 31.9763 25.2804 34.2152 24.8622C35.7752 25.6965 37.3352 26.531 38.8952 27.3654C43.0434 27.8802 47.1917 28.3951 51.3399 28.9099C47.9743 26.8682 44.6087 24.8267 41.243 22.7851Z" fill="black"/>
<path d="M0 11.6019L7.13425 20.8957C13.9213 21.162 20.7083 21.4283 27.4953 21.6947C21.3642 18.0641 15.2331 14.4336 9.10201 10.803C6.06796 11.0693 3.03401 11.3356 0 11.6019Z" fill="black"/>
<path d="M45.8885 10.803C39.7575 14.4336 33.6264 18.0641 27.4953 21.6947C34.2823 21.4284 41.0693 21.1621 47.8563 20.8958C50.2344 17.7978 52.6125 14.6999 54.9903 11.602C51.9566 11.3356 48.9225 11.0694 45.8885 10.803Z" fill="black"/>
<path d="M2.74673 12.7471C4.83851 12.5297 6.93032 12.3122 9.02221 12.0946C10.9404 12.7843 12.8587 13.4739 14.7769 14.1635C12.8852 13.0434 10.9936 11.9233 9.10196 10.8032C6.06796 11.0695 3.03401 11.3357 0 11.602L7.1342 20.8958C5.67174 18.1796 4.20923 15.4633 2.74673 12.7471Z" fill="black"/>
<path d="M7.99953 27.5408C9.16073 26.4134 10.322 25.286 11.4832 24.1587C8.87241 25.7424 6.26158 27.3262 3.65076 28.91L16.0955 27.3654C17.4096 26.6625 18.7239 25.9596 20.0381 25.2566C18.653 25.6952 17.2678 26.1338 15.8827 26.5724C13.255 26.8952 10.6273 27.218 7.99953 27.5408Z" fill="black"/>
<path d="M52.2438 12.7471C50.7813 15.4633 49.3188 18.1796 47.8563 20.8958C50.2344 17.7979 52.6125 14.6999 54.9903 11.602C51.9566 11.3357 48.9226 11.0695 45.8886 10.8032C43.9969 11.9233 42.1053 13.0434 40.2137 14.1635C42.1319 13.4739 44.0501 12.7843 45.9683 12.0946C48.0601 12.3122 50.152 12.5297 52.2438 12.7471Z" fill="black"/>
<path d="M46.9909 27.5407C44.3632 27.2179 41.7355 26.8951 39.1077 26.5723C37.7226 26.1337 36.3375 25.6951 34.9524 25.2566C36.2666 25.9595 37.5807 26.6624 38.895 27.3653L51.3396 28.9099C48.7289 27.3261 46.1181 25.7423 43.5073 24.1585L46.9909 27.5407Z" fill="black"/>
<path d="M44.9528 28.3542V32.109C44.9528 32.109 44.9528 37.7785 44.9528 41.4112C44.9528 42.985 31.9237 51.7229 27.1179 51.7229C22.3122 51.7229 9.28309 43.2536 9.28309 41.4112C9.28309 39.5689 9.28309 32.109 9.28309 32.109V29.7342V28.3542H7.28923V29.9817V32.109V40.2585C7.28923 40.2585 7.21676 41.6491 7.28923 42.5352C7.36175 43.4214 20.4538 53.9999 27.1179 53.9999C33.7821 53.9999 46.9466 43.7909 46.9466 42.5352C46.9466 41.2795 46.9466 40.2585 46.9466 40.2585V32.109V29.9817V28.3542H44.9528Z" fill="black"/>
<path d="M21.181 44.8909H33.8096L27.4954 48.5417L21.181 44.8909Z" fill="black"/>
<path d="M20.429 39.5907H17.8858V38.8247H20.429V39.5907ZM20.429 41.3932H17.8858V40.6271H20.429V41.3932ZM20.8801 37.7883H15.7406H11.9599C13.2205 38.1534 14.4803 38.5185 15.7406 38.8836V42.4294H17.8858L20.429 42.4296L20.8801 42.4294C21.8158 42.4294 22.5743 41.9683 22.5743 41.3996V40.6973C22.5743 40.3723 22.1408 40.1088 21.6062 40.1088C22.1408 40.1088 22.5743 39.8454 22.5743 39.5203V38.8181C22.5743 38.2493 21.8158 37.7883 20.8801 37.7883Z" fill="black"/>
<path d="M24.2047 42.4295H26.3496V42.4258H31.0382V41.3894H26.3496V40.6252H28.6939V39.5888H26.3496V38.8247H31.0382V37.7883H24.2047V42.4295Z" fill="black"/>
<path d="M39.2841 38.8247V38.8144C40.5331 38.4724 41.7817 38.1303 43.0309 37.7883H39.2841H32.4507V42.4296H34.5956V42.4259H39.2841V41.3894H34.5956V40.6253H36.9398V39.5888H34.5956V38.8247H39.2841Z" fill="black"/>
<path d="M16.4617 31.8817H13.9229V30.8002H16.4617V31.8817ZM17.3107 33.2648C18.0243 33.2648 18.6027 32.6855 18.6027 31.971V30.7911C18.6027 30.0134 17.8457 29.3829 16.9118 29.3829H11.7819V35.7294H13.9229V33.2988H14.9946L17.106 35.7294H19.247L17.106 33.2648H17.3107Z" fill="black"/>
<path d="M24.805 34.3125H22.2667V29.3831H20.1255V34.3212C20.1255 35.0989 20.8825 35.7294 21.8163 35.7294H22.2667L24.8054 35.7295L25.2554 35.7294C26.1893 35.7294 26.9463 35.0989 26.9463 34.3212V29.3831H24.805V34.3125Z" fill="black"/>
<path d="M33.5078 31.8479H33.0575V35.7295H33.5078C34.4417 35.7295 35.1988 35.0991 35.1988 34.3214V33.256C35.1988 32.4783 34.4417 31.8479 33.5078 31.8479Z" fill="black"/>
<path d="M33.5077 29.3829H30.5188L30.0684 29.383C29.1346 29.383 28.3775 30.0135 28.3775 30.7912V31.8566C28.3775 32.6343 29.1346 33.2648 30.0684 33.2648H33.0568V31.8477H30.5188V30.8H35.1986V30.7911C35.1986 30.0134 34.4416 29.3829 33.5077 29.3829Z" fill="black"/>
<path d="M28.3773 34.3214C28.3773 35.0991 29.1343 35.7295 30.0681 35.7295H33.0569V34.3124H28.3773V34.3214Z" fill="black"/>
<path d="M43.2086 31.8477V29.3831H41.0674V31.8477H38.5289V29.3831H36.3876V35.7295H38.5289V33.2649H41.0674V35.7295H43.2086V33.2649V31.8477Z" fill="black"/>
</g>
<defs>
<clipPath id="clip0_0_278">
<rect width="55" height="54" fill="white"/>
</clipPath>
</defs>
</svg>
